/* XPM */
static char * frame_10_xpm[] = {
"64 64 23 1",
" 	c None",
".	c #00FF00",
"+	c #545454",
"@	c #9CDCDC",
"#	c #00A8A8",
"$	c #20B4B4",
"%	c #48C0C0",
"&	c #00A4A4",
"*	c #74C8C8",
"=	c #009898",
"-	c #FCFCFC",
";	c #008C8C",
">	c #007C7C",
",	c #009C9C",
"'	c #006C6C",
")	c #007070",
"!	c #008484",
"~	c #005858",
"{	c #20B0B0",
"]	c #007878",
"^	c #007474",
"/	c #004040",
"(	c #646464",
".............................................+++++++++++++++++++",
".............................................@#####$$$$$%%%$%%%$",
".............................................@&##**&#$$$$%$%$%$%",
".............................................@=&*-@;>##$$#$$%$%$",
".............................................@==*@&;>####$#$$$$$",
".............................................@;==&;>#&&#####$#$#",
".............................................@;;;==,&&&&&'###'#$",
".............................................@;;;;==,,&&&&&#####",
".............................................@;;;;;;==,,))))))))",
".............................................@!;;;;;;===)~~~~~~~",
".............................................@!!;{{&;;;=)~,,=###",
".............................................*>!{@%;);;;)~==,,#=",
".............................................*>>=%&;);;;)~;==,,,",
".............................................*>>>=;))!;;'~=;===,",
".............................................*>>>)))>;!;'~;;====",
".............................................*]>>>>!!>!!'~;;;;=;",
".............................................*]]>>>>!!!!'~;;;;;=",
".............................................*]]]>>>>!!!'~;;;;;;",
".............................................%]]!==;>>!!'~!;!;;;",
".............................................%^]=$&;)>>!'~!!;!;!",
".............................................%^];&&]~>>>'~!!!;!;",
".............................................%^^)]))~]>>~~!>!!;!",
".............................................%^^'~~~'>]>~~>!!!!;",
".............................................%)^^^]]]]>]~~>>!>!!",
".............................................%)^^^]]]]]>~~>>>!!!",
".............................................%')^^^^]]]]~~>>>>!>",
".............................................%')>=;!^]]]~~>>>>>!",
".............................................%''=$=;)^]]~~>>>>>>",
".............................................%)';=;)~^^]~~]>>>>>",
".............................................%^))))~~^]]~~>]>>>>",
".............................................%^)'~~~'^^]~~]>]>>>",
".............................................%]^)'')^^^^~~]]>]>>",
".............................................$]^)''))^^^~~]]]>]>",
".............................................$]]^)'')^^^~~]]]]>]",
".............................................$]]>;>'')^^~~^]]]]>",
".............................................$]];&=>)))^~~^^]]]]",
".............................................$>];=;)~')^~~^^^]]]",
".............................................$>])))~~'')~~^^^^]]",
".............................................{>>'~~~''')~~^^^]^]",
".............................................{>>]]^^)'''~~^^^^]^",
".............................................{>>]]]^))''~~^^^^^]",
".............................................{>>>]]^^))'~~)^^^^^",
".............................................{>>!=;])))'~~))^^^^",
".............................................{!>=$=;)^))~~')^^^^",
".............................................{!>;=;)~^))~~'))^^^",
".............................................{!!)))~~^^)~~''))^^",
".............................................{!!'~~~'^^)~~''')^^",
".............................................{!!>>>]]]^^~~'''))^",
".............................................{!!!>>]]]^^~~)'''))",
".............................................{!!!>>>]]]^~~)'''')",
".............................................{!!!=;;>]]^~~))''')",
".............................................{!!=$=;)]]^~~)))'''",
".............................................{!!;=;)~]]]~~)))'''",
".............................................{;!)))~~]]]~~^)))''",
".............................................{;!'~~~'>]]~';;;!!!",
".............................................{;!!!!>>>]]~!==;;;;",
".............................................{;!!!!>>>>]]^^^)))'",
".............................................{;!!!!>>>>]]/^^^/))",
".............................................{;;>==]>>>]]]^^^)))",
".............................................{;;=%{>'>>>]]]^^^))",
".............................................{;;={!'~>>>]]]^^^))",
".............................................{;;>''~~>>>>]]]^^^)",
".............................................{;;'~~~)>>>>]]]^^^)",
".............................................((((((((((((((((((("};
