/* XPM */
static char * cobblestone_xpm[] = {
"64 64 209 2",
"  	c None",
". 	c #52514B",
"+ 	c #5E5C55",
"@ 	c #69675F",
"# 	c #54534D",
"$ 	c #373633",
"% 	c #56544E",
"& 	c #69685F",
"* 	c #5A5852",
"= 	c #43423D",
"- 	c #68665E",
"; 	c #5E5B55",
"> 	c #45443F",
", 	c #6A6860",
"' 	c #343330",
") 	c #4C4A45",
"! 	c #6B6961",
"~ 	c #58564F",
"{ 	c #504E49",
"] 	c #5F5D56",
"^ 	c #5D5B54",
"/ 	c #727067",
"( 	c #3D3C38",
"_ 	c #626058",
": 	c #636159",
"< 	c #5B5953",
"[ 	c #4F4E48",
"} 	c #52504A",
"| 	c #6C6A61",
"1 	c #353430",
"2 	c #4C4B45",
"3 	c #4B4944",
"4 	c #615F58",
"5 	c #514F49",
"6 	c #5A5851",
"7 	c #45433F",
"8 	c #6E6C64",
"9 	c #41403B",
"0 	c #403F3A",
"a 	c #5C5A53",
"b 	c #53514B",
"c 	c #57554F",
"d 	c #585650",
"e 	c #3A3936",
"f 	c #4E4D47",
"g 	c #66645C",
"h 	c #5B5A53",
"i 	c #4F4D47",
"j 	c #65635B",
"k 	c #4D4B46",
"l 	c #46443F",
"m 	c #43413D",
"n 	c #353431",
"o 	c #605E57",
"p 	c #484641",
"q 	c #383734",
"r 	c #57554E",
"s 	c #5D5B55",
"t 	c #737168",
"u 	c #3B3936",
"v 	c #64625A",
"w 	c #4A4843",
"x 	c #5B5952",
"y 	c #6F6D65",
"z 	c #3E3C38",
"A 	c #4B4A44",
"B 	c #44423E",
"C 	c #484642",
"D 	c #403F3B",
"E 	c #6F6D64",
"F 	c #5D5C54",
"G 	c #65645C",
"H 	c #706F66",
"I 	c #413F3B",
"J 	c #51504A",
"K 	c #75736A",
"L 	c #53524C",
"M 	c #716F66",
"N 	c #6D6B63",
"O 	c #504E48",
"P 	c #595750",
"Q 	c #484742",
"R 	c #4A4943",
"S 	c #6E6C63",
"T 	c #3B3A36",
"U 	c #69675E",
"V 	c #54534C",
"W 	c #464540",
"X 	c #6C6A62",
"Y 	c #52514A",
"Z 	c #4F4D48",
"` 	c #3A3935",
" .	c #3E3D39",
"..	c #626059",
"+.	c #57564F",
"@.	c #3E3C39",
"#.	c #5C5A54",
"$.	c #4E4C47",
"%.	c #383733",
"&.	c #54524C",
"*.	c #42413C",
"=.	c #42413D",
"-.	c #6B6A61",
";.	c #4D4C46",
">.	c #504F49",
",.	c #52504B",
"'.	c #65635C",
").	c #5E5D55",
"!.	c #53524B",
"~.	c #5A5952",
"{.	c #4C4B46",
"].	c #4A4944",
"^.	c #616058",
"/.	c #383633",
"(.	c #494742",
"_.	c #55534D",
":.	c #393834",
"<.	c #6B6960",
"[.	c #514F4A",
"}.	c #6A6960",
"|.	c #464440",
"1.	c #595751",
"2.	c #6C6B62",
"3.	c #393734",
"4.	c #4E4C46",
"5.	c #55544D",
"6.	c #5F5D55",
"7.	c #6D6C63",
"8.	c #605F57",
"9.	c #403E3A",
"0.	c #595851",
"a.	c #5E5D56",
"b.	c #747269",
"c.	c #706E65",
"d.	c #737167",
"e.	c #6D6B62",
"f.	c #353330",
"g.	c #53514C",
"h.	c #63615A",
"i.	c #494842",
"j.	c #333230",
"k.	c #56544D",
"l.	c #63625A",
"m.	c #5D5C55",
"n.	c #706E66",
"o.	c #716F67",
"p.	c #3F3E3A",
"q.	c #56554E",
"r.	c #43423E",
"s.	c #45433E",
"t.	c #626159",
"u.	c #615F57",
"v.	c #3F3D39",
"w.	c #605E56",
"x.	c #41403C",
"y.	c #67665D",
"z.	c #44433E",
"A.	c #343230",
"B.	c #3F3E39",
"C.	c #484741",
"D.	c #64625B",
"E.	c #3A3835",
"F.	c #3C3B37",
"G.	c #494843",
"H.	c #474641",
"I.	c #67655D",
"J.	c #66645D",
"K.	c #64635B",
"L.	c #3D3B37",
"M.	c #393835",
"N.	c #44423D",
"O.	c #5F5E56",
"P.	c #515049",
"Q.	c #76746A",
"R.	c #6F6E65",
"S.	c #5C5B54",
"T.	c #3C3A37",
"U.	c #474540",
"V.	c #46453F",
"W.	c #33322F",
"X.	c #33332F",
"Y.	c #3F3D3A",
"Z.	c #32312E",
"`.	c #585750",
" +	c #474541",
".+	c #6A685F",
"++	c #3E3D38",
"@+	c #5B5A52",
"#+	c #343430",
"$+	c #373632",
"%+	c #333330",
"&+	c #68675E",
"*+	c #3D3B38",
"=+	c #363532",
"-+	c #4B4A45",
";+	c #4D4B45",
">+	c #42403C",
",+	c #3C3A36",
"'+	c #66655D",
")+	c #363531",
"!+	c #363431",
"~+	c #44433F",
"{+	c #54524D",
"]+	c #6F6C64",
"^+	c #32312F",
"/+	c #4C4A44",
"(+	c #6F6E64",
"_+	c #6E6D64",
":+	c #5C5B53",
". . + + @ # $ % + + & * + + + + + = - + + ; > + + + , ' ) + + ! ~ + + + + + { ] + + + > ^ + + / ' ( + + _ : + + + + + < [ _ + + ",
"} . + + + | 1 2 ^ 3 4 5 + + + + 5 ' 6 + + ^ 7 + + + 8 9 0 a b c ^ % + + + d e f + + + > ^ + + g h ' d 6 i j k + + + a l m a + + ",
"& - 6 + + ^ n $ 7 n d m . d o p q | % r d s t c + + + > ' m u i f p d v w ( ] ] b d x y ^ + + + b ' ( 0 = ~ z % + c m A g % d d ",
"j 4 B 6 a C b ' D E E F $ g : ' G + | y 4 ^ + 5 b ^ 5 k D ' G H g I J K ' L j j M N O _ P k a d Q R ' L / S 3 T t O 0 U _ E S } ",
"a V 0 D = b @ W X + + g g x Y ' * + + + Z { 6 Q ` l  .! c h g + ..| +.+ ' i + + + * = ^ p = = @...g 9 8 + + X h + > = a + + #.= ",
"= _ y ..D } + W 4 + + + j ..p ' 6 + + + $.z c | | 3 7 + } c + + + + X 5 ' $.+ + + 6 %.3 X X x n ^ + R + + + + E &.( m a + + a *.",
"' b + ..| =.r q h + + + ^ B ' ' s + + + f ' > + + -.;.% = >.+ + + + 5 ' ' ,.+ + + 6 ' n + + '.).Z i m + + + + a n ' > + + + ^ D ",
"!.. + + + 3 u ~.Q + + a k ~.~.' % + + 5 {._ 7 + + + c T ].k ^ + + b i _ D w + + d Q _ D ^ + + ^./.$ x V + + * 3 _ w ( a + a (.~.",
"i . + + d _ R i %._.d k ^ '.g ^.p c 5 :.<.x > + + a < x = = 2 P _.Z - ..- 2 [.r  .] o = ^ + + } }.n Z = r r |.- ..@ ~.Q d Q i '.",
"T 1.+ 6 A + r j D %.( ' ..+ + ..X 2.3.' } l 4.+ s 3 ~.^.5.5.' z /.r + + 6.X | [ ' w 2 *.+ + _.5 + b j 1 T u ].+ + + g 7.8.' 9.b ",
"0.a + ^ B c , ..- n ! l a + + + + g b x / a.] + + 7 P ^ | j ].x x { + + + + ....9 b.@ a s + Y f _.c._ x W ! = s + + + + | T | d.",
"e.v b [.f.- g + g &._.> = * + + + r = b + g <.c b z c | + + g ].>.u _.+ + + 6 k > + _ S x g.C = c.] + y z 6 1 i a + + ^ [.T + + ",
"+ @ h ' > g + + + > z [ E '.c h.X ~ i.>.+ + ..X ' j.g + + + . /.D | E k.+ - l.J m m.+ + t 0 ' c _ + + + ' B x n.^ 1.g M w 9.a + ",
"+ + b ' D * + + + > i.! + g G + + o.g T ^ + + + ' ' c + + + ,.p.- + 6.t O j ! @ l q.+ + + > ' R + + + + ' ^ '.+ E ,.@ 4 E c ].+ ",
"P c % ' m ^ + P _.:.E + + + o b ! ..a m Z P P c p.' a + x c r.....+ + @ s.j @ + $.W c P _.$.' { + a P ;.].| + + _ 5 ] S + 6 T _.",
"o t.@ ! u.3 3 v.%.1 _ + + + . (.y + a { ' w.J X | - 3 Z x.T ' ~ + + + +  .e.+ + 6 ' Z } e.X y.q.Z z. .' 3 + + + + > 4 g + 6 > /.",
"L b + ] h.> p.5 A.' ^ + + + Y s.+ + + 6 !.U l + + ] c ' 5 B.' Y + + + + p.r + + a *.M W + + ] ..1 C.Q ' > + + + + > } + + + f - ",
". . + + + > _ , D.1 ^ + + a |.b + + + 1.) _ > + + + ,.b , ! 0 Y + + + J > + + + a *.g > ^ + + m.E.X X } > + + + P F.^ + + + $.a ",
"Z k + + a B ^ + g 6 P + a G.' v.+ + a H.. P I a + + i ,.+ 6.! k + + } q q r + + } (.P = P + + x 7 + + E w a + P p.' k + + P > % ",
"/./._.d (.n ^ + + &  .Z : @ y.I.+ &.s.n y [ ' 3 a [ %.} + + , p 3 * <.y.y.D.g.) %.o ..' I 6 _.v.> + + ..a z.c - y.y.g 1.O v.A M ",
"_ G.K / 6 ' * + + + ' ..J.] ] ] E ' B.I.+ ! ' M t ! ' i + + + > [ e.] ] ] e.R ' l.^ j i 4 / b.p.m a + + . ' y : ] ] : ..n J v + ",
",.h + + @ G.z.x + + 5.} + + + + : ].K...+ ; w : + g 1.T 5.+ + w.> + + + + + h % J.+ + l j + ..- /.) + + F Q + + + + + g w g + + ",
". . + + ....' . + % @ + + + + + P 3.^ + + ; > + + + E ' > + P ] I.x + + + a B b + + + > ^ + + e.i.' + a c E % + + + + O l + + + ",
"6 u.a + + j n L.&.M.^ > x + a % 9.+.3 #.+ c K.x + + : w n { z.b b Z + ^ ~ w 5 G.1.+ * o #.+ + 6.x ' H.4.W ^ N.a + x { =.b b + + ",
"c.j { + + &.' ' n O...z.p.#.@ n P.I.c...c g I.% x + P  .' 1 J g } %.Z Q.' v.g R.I.^ 1., ^ c + a (.' ' B.U ^ ' 7 2.V ' 4 @ 8 ^ [ ",
"+ a n ) { 2 n. .o h.I.E >.a &.' '.+ + I.S.} + = m &.D 2.5.(.| h.2.: 3 h.' x + + h., W + 5 T.{ G.+ I.' e.w., N z g W w : + ] , A ",
"{ !., H.' . + p @ + + + 2.j Z ' % + + + w U._.v c n z.+ b O.] + + h.y 1.' w + + + % T.% P h. .n ^ 6.f : + + 6.b.6 = 0 6 + + 6 9.",
"n ).] e.: A a p.^ + + + + 5 q ' s + + + } ' f : I.7.H.a 3 . + + + + x F.' ,.+ + + ^ 1 M.g : E 5 c ~ > + + + + ..D ' > + + + + > ",
"z . + + h.H.> W { + + + c 9 ( ' a + + 1. .V.7 + + + +.> x.R + + + x = l W.5 + + a w V.X.^ + + t.p.Y.R P + + + $.W Z.= + + + &. .",
"h . + + a `. .a B.x + &.;.E E U. +a 1.D N .+7 + + + a U.) A % + x ].I.N h F.1.a w + N ].^ + + 1.q.' ^ A a a i a e.I. .,.+ } 2 E ",
"m _.+ a w ).+.{ ' =.Q T.g + + X : < D n 6 i (.+ + . 5 g z.B T.(.m c ..+ I.e.c k ' >.&.D ^ + 1.p J.s.5 %.l l C.g + ..8 x % 3.z.6 ",
"++^ + x ;.^ o S @+' + B.+ + + + h.M G.(.! ) P + + 7 ..a ! j ++>.>.} + + + + E ] #+@ ^ k + + b c x - e.H.B.+ > + + + + - y ' x | ",
"t c 6 1.:.a ! + X G.+ l i + + + + x 4.x o ! j ~ 6 = ;.<.: ..4 . &.z.x + + + #.d w l.g 7.% 6 [ 9.g I.+ 8 z.] :.c + + + + * D g o ",
"] / 5 F. .e.] + + ) > (.8.< ^ ^ D.!.W.. + + , v p.' - o + + P L.(.r 4 x + ^ h.$+> + + v / v.3.5.I.+ + h.n $.W K.* + a ! T.W.+ + ",
"+ + h ' z.a + + + > ' I.v ! a y.@ , I.> + + + g %+' a + + + ,.' `.- - g 6 c.h.n.*.x + + h.w ' { + + + + ' i.@ v ! >./ '.e.5.,.+ ",
"+ ^ 2 ' *.< + + x B.- o + ] y.b o , ] B.~ + + ~ W.' 1.+ + ^ ) +.g + + M s.< 8 + f ;.^ + x 9.' k + + + r  .e.] + I.5.< .+: 6 I x ",
"% a e.% (.% % (.m n , + + + b O / + 6 p L.% O <.t.k i d k |.%.4 + + + 6.= M + + 5 3.k { : N ;.) d 5 (.F.5 ..+ + + U.j , + %  .m ",
"^ P + - e.x.:.W.' ' ^ + + + . q h.+ + 1.Q &+) ] h.! 5.L.W.' ' Y + + + + ' x + + +  .g 2 : ] ! v *+1 W.' > + + + + 7 Z ] + + $.+.",
". . + + + U.S.n.i ' ^ + + + $._.+ + + % P.g > + + + &.Q M ^.' Y + + + 6 i.^ + + 6 0 S l ^ + + ] ' 2.X ( > + + + ^ *.] + + + w j ",
". b + + + l ^ + | (.^ + + b q R + + + . > ^ > + + + ,.,.+ h.] b + + 1.9.B.x + + 1.F.^ > ^ + + s B 6.] e.7 + + #.3 ' % + + #.H.,.",
"I z 1.^ b ` ^ + ] , (.d % 5 ].].0.6 [.e c.$.=+b + d I } + + c.> % % % ].3 _.* r I l.a :.(.#.x A > + + I.P [.d d -+].O 6 d 3 Z , ",
"+.( X X -+' ^ + + w.n ^ c.X X X ! 9.n % ] I.' 4 8 S.' . + + ] U.;+y X X X / H.E.f 6 g Q J S , n > + + + _.n e.S X X S ^ *+z x j ",
"_.a j 4 I.F.O ^ + + B _.+ + + + ! z.P I.+ w.z.| 4 N = = < + + 5 H.] + + + : a = N + ] H., 4 - P F._.+ + ~ F.o + + + + , L.I.] + ",
". } + + I.6 n _.+ < .+] + + + + #.p.v + + ; 7 + + ^ | ' (.+ ^ I.4 + + + + + ) 6 + + + > ^ + + H F.:.+ + ^ , ^ + + + + ~ 2 ] + + ",
"_.% + + + , n p 6 B + Q + + + < 3 F._.+ + < [ + + + <.z.F.d k _._.b + + ^ b 9.w ^ + ^ O a + + : h ' b _.-+] H.+ + + d 0 > 6 + + ",
"S @ r + + x n n 9.= ~ D ) d : 9 ( 8 ..% &.l.M ~ ^ + #.N.' ( p._.3 9 _., >+3.v .+d &.^ E o < + + O ' M.,+} &.E.} _ _.( !.<.O.&._.",
"o ] z r d p : j.;.S c.&+( K.+ ' - + j c.: _.s 3 i 6 3 a p F., 8 e.4.>.c.' 1.: o 8 M i.] &.p d b J q.' o e.M a =+M 2 z.@ ] @ M >.",
"P i Y E.( b 4 w X + + o , ] . ' ~ + + + ) 4.% 5 L.D p.j r ).: + ] , u.+ ' A + + + c >+x U.4.( E.] : H.<.+ + '.'++ > 9 x + + x 9 ",
"z j , | ;.[.+ s.+ + + + : a I ' a + + + 5 M.q., E a = ^ 5 &.+ + + + g p ' 5 + + + a )+z.E , y.L.#.^ U.+ + + + , 3 M.z.^ + + ^ z.",
"' . + ] , B [.n d + + + < p.' ' s + + ^ R W.7 + + j V [.( 2 + + + ^ ;+W.' ,.+ + + _.' ' ^ + o h.(.(.p.a + + + c ' ' > + + + < F.",
"P . + + + A !+O.7 + + x C I.I.W.} + ^ ) h @ 7 + + + ~ n f i ^ + + i P -.U.l ^ + &.5 -.z.^ + + + ,+n 8.} + + d ;.-.% :.6 + 6 p I.",
") . + + &.^.!.3 n $._.7 j o o ! >.,.3 =+D.~ 7 + + 6 5.K.9 I ~+_.$.V g ] <.h ) J M.6 a >+^ + ^ ) S ( A ( } } l <.] g I.(.{+x.2 o ",
"` a + 6 3 o +.X U.n B A.] + + ] , b.( T 1.> b + s  +] + o a W. .T.&.+ + + g / c ' &.O U.+ + b _.^ 0.| ' =+m H.+ + + u.y , ' (.1.",
"g P + ^ D r X ] 2.( , i.~ + + + + o &.a N g o ^ + 7 &...- j 5.a a 2 ^ + + + ] o z.c..+: a + b w d S ] g i., 0 < + + + + '.B.! S ",
"g ! { (.' e.h.+ : } [ = 3 d + + ] &.F.. + u.e.* 3 E.).- + + _ |.4.v._.+ + ^ #.B > + ] <.l.3 >+C.c.+ + | ` % ' &.x + + o (.=+s + ",
"+ D.a ' i.u.+ + + > E.6 8 , r I.S ).5.$.+ + ] <.W.W.h.+ + + } n Q E c.d ] 8 : ^.9.+ + + N = ' c ] + + ^ ' z.v E ..k.e.]+6 H.6 + ",
"+ + 5 ' 9.6 + + + B _.- + h.&+r x M h.` a + + ^ ' ' % + + + [.U.@ + + K (.+ S ..A b + + + B ' G.+ + + ^ n K.h.+ S &.4 v @ P > + ",
"_.% 4 ` p.a a _.Z =+E + + + ~.b E ] x 9 C _._.] A ^+d ^ c ,. .j o + + j > , j + /+9 } _.~ a W.2 ^ 1._.|.5 - + + ] 4.4 e.+ d %.Z ",
"t.4 : E <.B z./.n ' ] + + + . *.-.+ ^ % T g >.J.<.E ;.p T =+' &.+ + + + ` I.+ + 6.$ P 5 <.g E ^ p  ./.' H.+ + + + > ~.h.+ a 3 *.",
",.. + + ] Q A o ` ' ^ + + + . 3 + + + ~ # @ > + + + c ` 8.3 ' Y + + + + = d + + x 9 / l ^ + + ^.' d d ' > + + + + l q.+ + + ) , ",
". . + + + > o h., ,+^ + + 6 p.J + + + P p ] > + + + . &.: , ) Y + + ^ 3 B + + + a x.u.> ^ + + s ( I.I.+ > + + + {+$ a + + + ;.% ",
"3 Q ^ + * D ^ + h.o &.^ 1.r.' %.m.+ 1.>+] &.( 6 + ^ 3 ,.+ + S Q a a k n n &.+ a ) V d 0 &.+ + % 7 + + S ;.P ^ _.` ' p + ^ &.w a ",
"9 n < + p ' ^ + + I.` J ! (+E E 4 ) v.( .+~ ' $.4 } n } + + j G.w h.c.E E | ) 7 T ^ D.` *.w.* ` > + + w.@+ .+ S E E N c (.E.f E ",
"] V M S w.' ~ + + + ' ] 4 + + + E ` W <.+ &+u d.S _+' ) + + + > ;.I.+ + + &+V W.! + v 4.- S / W x.x + + } ' , ] + + ] - ' :+h.+ "};
