/* XPM */
static char * green_tiles_xpm[] = {
"64 64 493 2",
"  	c None",
". 	c #060404",
"+ 	c #010202",
"@ 	c #151F1F",
"# 	c #121B1A",
"$ 	c #080C0C",
"% 	c #020202",
"& 	c #060505",
"* 	c #040303",
"= 	c #14201D",
"- 	c #1A2824",
"; 	c #0A0909",
"> 	c #070606",
", 	c #070505",
"' 	c #0D1514",
") 	c #0C0F0F",
"! 	c #050909",
"~ 	c #030505",
"{ 	c #1D2D29",
"] 	c #111816",
"^ 	c #090A0A",
"/ 	c #14211D",
"( 	c #192522",
"_ 	c #324A44",
": 	c #314842",
"< 	c #2E443E",
"[ 	c #2D433D",
"} 	c #1C2926",
"| 	c #141D1D",
"1 	c #0F1717",
"2 	c #0F1817",
"3 	c #0F1617",
"4 	c #0F1616",
"5 	c #141F1E",
"6 	c #344E47",
"7 	c #0F1515",
"8 	c #040707",
"9 	c #0A0E0E",
"0 	c #293E38",
"a 	c #354E47",
"b 	c #324A43",
"c 	c #1B2824",
"d 	c #1E2D2A",
"e 	c #101818",
"f 	c #0F1818",
"g 	c #0E1617",
"h 	c #273B36",
"i 	c #365049",
"j 	c #1E2C28",
"k 	c #121B1B",
"l 	c #0A1111",
"m 	c #000000",
"n 	c #141E1D",
"o 	c #344D47",
"p 	c #131B18",
"q 	c #2B403B",
"r 	c #293D38",
"s 	c #304741",
"t 	c #23332F",
"u 	c #131A18",
"v 	c #37514A",
"w 	c #314943",
"x 	c #243532",
"y 	c #293D39",
"z 	c #364F48",
"A 	c #375049",
"B 	c #344C46",
"C 	c #263833",
"D 	c #283B36",
"E 	c #233431",
"F 	c #1C2A27",
"G 	c #1D2B27",
"H 	c #22332E",
"I 	c #2F4640",
"J 	c #304740",
"K 	c #2A3E39",
"L 	c #2C423C",
"M 	c #161F1C",
"N 	c #233430",
"O 	c #364F49",
"P 	c #233531",
"Q 	c #324943",
"R 	c #37504A",
"S 	c #192421",
"T 	c #334C45",
"U 	c #263935",
"V 	c #202F2C",
"W 	c #121A18",
"X 	c #314841",
"Y 	c #243632",
"Z 	c #344C45",
"` 	c #1C2927",
" .	c #101614",
"..	c #1F2E2A",
"+.	c #202F2B",
"@.	c #1C2A26",
"#.	c #141C1A",
"$.	c #1A2623",
"%.	c #354F48",
"&.	c #354E48",
"*.	c #283C36",
"=.	c #17211E",
"-.	c #324B44",
";.	c #273A35",
">.	c #1B2724",
",.	c #17221F",
"'.	c #121A17",
").	c #2C403B",
"!.	c #2D423D",
"~.	c #23342F",
"{.	c #1D2B28",
"].	c #243631",
"^.	c #060606",
"/.	c #202E2A",
"(.	c #1D2A26",
"_.	c #1A2622",
":.	c #2D423C",
"<.	c #334C46",
"[.	c #283C37",
"}.	c #17201D",
"|.	c #334B44",
"1.	c #070706",
"2.	c #070707",
"3.	c #2C413B",
"4.	c #2F453F",
"5.	c #21312D",
"6.	c #21302C",
"7.	c #20302C",
"8.	c #182421",
"9.	c #101513",
"0.	c #121917",
"a.	c #293D37",
"b.	c #050505",
"c.	c #0C1110",
"d.	c #0F1311",
"e.	c #1E2D28",
"f.	c #182320",
"g.	c #0B0F0D",
"h.	c #040606",
"i.	c #2F463F",
"j.	c #0E1616",
"k.	c #0E1717",
"l.	c #101616",
"m.	c #1C2925",
"n.	c #1E2D29",
"o.	c #050404",
"p.	c #101715",
"q.	c #253632",
"r.	c #040202",
"s.	c #101918",
"t.	c #15201E",
"u.	c #101717",
"v.	c #0F1413",
"w.	c #1F2D29",
"x.	c #1C2825",
"y.	c #141C19",
"z.	c #0B0E0C",
"A.	c #0B0E0D",
"B.	c #080606",
"C.	c #050808",
"D.	c #182322",
"E.	c #101919",
"F.	c #304842",
"G.	c #080707",
"H.	c #080808",
"I.	c #020101",
"J.	c #070C0C",
"K.	c #080D0D",
"L.	c #0D1111",
"M.	c #0E1212",
"N.	c #090F0F",
"O.	c #15201F",
"P.	c #141E1E",
"Q.	c #0B0B0B",
"R.	c #080807",
"S.	c #040404",
"T.	c #0B0F0F",
"U.	c #0C1313",
"V.	c #151F1C",
"W.	c #16201F",
"X.	c #2A3F39",
"Y.	c #334B45",
"Z.	c #253733",
"`.	c #0C1111",
" +	c #1A2826",
".+	c #2B413C",
"++	c #2C423D",
"@+	c #20302D",
"#+	c #1C2A28",
"$+	c #2B403A",
"%+	c #344D46",
"&+	c #2E453F",
"*+	c #151F1D",
"=+	c #192524",
"-+	c #263934",
";+	c #151E1C",
">+	c #253833",
",+	c #22322E",
"'+	c #21312C",
")+	c #090B0A",
"!+	c #0D1210",
"~+	c #2E433D",
"{+	c #090707",
"]+	c #22312D",
"^+	c #21322D",
"/+	c #0A0B0A",
"(+	c #030303",
"_+	c #010101",
":+	c #030202",
"<+	c #131B19",
"[+	c #1B2723",
"}+	c #0D1110",
"|+	c #010000",
"1+	c #20302B",
"2+	c #0C100F",
"3+	c #151D1B",
"4+	c #090909",
"5+	c #0A0A09",
"6+	c #090A09",
"7+	c #0D110F",
"8+	c #2C413C",
"9+	c #050807",
"0+	c #0E1515",
"a+	c #1C2B28",
"b+	c #111A1A",
"c+	c #080A0A",
"d+	c #0B0B0A",
"e+	c #030606",
"f+	c #273935",
"g+	c #253732",
"h+	c #141E1C",
"i+	c #070D0D",
"j+	c #172221",
"k+	c #192523",
"l+	c #070B0B",
"m+	c #202F2A",
"n+	c #0E1516",
"o+	c #0B1010",
"p+	c #0A0C0C",
"q+	c #0D1415",
"r+	c #20312D",
"s+	c #131C19",
"t+	c #121C1B",
"u+	c #1B2826",
"v+	c #0E1414",
"w+	c #0E1716",
"x+	c #18221F",
"y+	c #060909",
"z+	c #1D2C2A",
"A+	c #0B1111",
"B+	c #050504",
"C+	c #111715",
"D+	c #2B413B",
"E+	c #354D47",
"F+	c #0B1212",
"G+	c #0B0D0D",
"H+	c #1A2725",
"I+	c #18231F",
"J+	c #314942",
"K+	c #182523",
"L+	c #1A2522",
"M+	c #0C0F0E",
"N+	c #111818",
"O+	c #263834",
"P+	c #243633",
"Q+	c #253631",
"R+	c #20312C",
"S+	c #0C1010",
"T+	c #0A0C0B",
"U+	c #020404",
"V+	c #16201E",
"W+	c #0E1210",
"X+	c #0D1211",
"Y+	c #050605",
"Z+	c #1A2726",
"`+	c #273A36",
" @	c #050303",
".@	c #080505",
"+@	c #0B0F0E",
"@@	c #070807",
"#@	c #0A1010",
"$@	c #223330",
"%@	c #0D1515",
"&@	c #182524",
"*@	c #1D2C29",
"=@	c #192624",
"-@	c #030404",
";@	c #070808",
">@	c #080908",
",@	c #2A3E38",
"'@	c #090D0B",
")@	c #0D1615",
"!@	c #060807",
"~@	c #0C1412",
"{@	c #1A2724",
"]@	c #090808",
"^@	c #131D1D",
"/@	c #365048",
"(@	c #16221F",
"_@	c #0E1311",
":@	c #0D1414",
"<@	c #070909",
"[@	c #131D1A",
"}@	c #243530",
"|@	c #101615",
"1@	c #2F4540",
"2@	c #0D1311",
"3@	c #101A19",
"4@	c #0B1210",
"5@	c #16201D",
"6@	c #22332F",
"7@	c #151E1B",
"8@	c #131B1B",
"9@	c #2A3F3A",
"0@	c #293C37",
"a@	c #2E443F",
"b@	c #1E2E2B",
"c@	c #172321",
"d@	c #040505",
"e@	c #0A0D0C",
"f@	c #0E1211",
"g@	c #2B3F3A",
"h@	c #1A2723",
"i@	c #192521",
"j@	c #101819",
"k@	c #182423",
"l@	c #172322",
"m@	c #0C1414",
"n@	c #1D2A27",
"o@	c #162020",
"p@	c #141C1B",
"q@	c #304640",
"r@	c #060B0B",
"s@	c #0E1312",
"t@	c #111815",
"u@	c #233530",
"v@	c #0B1112",
"w@	c #131C1C",
"x@	c #040605",
"y@	c #070D0B",
"z@	c #0D1715",
"A@	c #030605",
"B@	c #121817",
"C@	c #1F2E2B",
"D@	c #121A1A",
"E@	c #151E1D",
"F@	c #151F1E",
"G@	c #111919",
"H@	c #060B0A",
"I@	c #0B1412",
"J@	c #08100E",
"K@	c #192422",
"L@	c #233330",
"M@	c #070C0B",
"N@	c #0E1715",
"O@	c #304841",
"P@	c #162120",
"Q@	c #0D1212",
"R@	c #141D1B",
"S@	c #111717",
"T@	c #101716",
"U@	c #1F302C",
"V@	c #21322E",
"W@	c #22322F",
"X@	c #2A403A",
"Y@	c #060A0A",
"Z@	c #253834",
"`@	c #182522",
" #	c #21322F",
".#	c #293C38",
"+#	c #1E2C29",
"@#	c #1B2927",
"##	c #192623",
"$#	c #283B37",
"%#	c #111A19",
"&#	c #22322D",
"*#	c #121916",
"=#	c #1B2825",
"-#	c #273934",
";#	c #243531",
">#	c #050606",
",#	c #141E1B",
"'#	c #101514",
")#	c #090C0B",
"!#	c #090807",
"~#	c #0D100F",
"{#	c #121816",
"]#	c #060605",
"^#	c #080B0B",
"/#	c #192622",
"(#	c #293E39",
"_#	c #0C0E0D",
":#	c #243732",
"<#	c #111B1B",
"[#	c #192725",
"}#	c #38524B",
"|#	c #0E1412",
"1#	c #070A09",
"2#	c #040403",
"3#	c #2B3F39",
"4#	c #080A09",
"5#	c #060908",
"6#	c #141D1A",
"7#	c #030102",
"8#	c #091110",
"9#	c #080E0E",
"0#	c #091010",
"a#	c #0A100E",
"b#	c #0A1110",
"c#	c #2D443E",
"d#	c #020303",
"e#	c #111917",
"f#	c #1A2624",
"g#	c #0A0E0F",
"h#	c #121D1B",
"i#	c #090D0C",
"j#	c #080909",
"k#	c #1F2D2A",
"l#	c #202E2B",
"m#	c #111B1A",
"n#	c #060405",
"o#	c #080D0B",
"p#	c #111C19",
"q#	c #21332E",
"r#	c #1D2D28",
"s#	c #080506",
"t#	c #101714",
"u#	c #010302",
"v#	c #111D1A",
"w#	c #090E0E",
"x#	c #1E2B28",
"y#	c #050707",
"z#	c #0E1313",
"A#	c #161F1D",
"B#	c #121C1C",
"C#	c #192423",
"D#	c #1F2E29",
"E#	c #0A0F0D",
"F#	c #0A0B0B",
"G#	c #1B2925",
"H#	c #060808",
"I#	c #0F1513",
"J#	c #0F1614",
"K#	c #283C38",
"L#	c #304641",
"M#	c #1E2D2B",
"N#	c #172320",
"O#	c #263A35",
"P#	c #233532",
"Q#	c #21312E",
"R#	c #182422",
"S#	c #0B0C0C",
"T#	c #1A2625",
"U#	c #0C0E0E",
"V#	c #141F1F",
"W#	c #2E433E",
"X#	c #121B1C",
"Y#	c #1F2F2C",
"Z#	c #0F1412",
"`#	c #0C1210",
" $	c #0E1110",
".$	c #16211F",
"+$	c #304742",
"@$	c #152020",
"#$	c #0C1011",
"$$	c #324B45",
"%$	c #202F2D",
"&$	c #15201D",
"*$	c #010100",
"=$	c #0B0C0B",
"-$	c #050908",
";$	c #0F1718",
">$	c #030405",
",$	c #030506",
"'$	c #263733",
")$	c #17211F",
"!$	c #1B2725",
"~$	c #040607",
"{$	c #040203",
"]$	c #1D2B29",
"^$	c #37524B",
"/$	c #243733",
"($	c #0B0D0C",
"_$	c #37524A",
":$	c #0B1213",
"<$	c #060C0A",
"[$	c #0D1613",
"}$	c #030504",
"|$	c #060A09",
"1$	c #0B1311",
"2$	c #080E0C",
"3$	c #223430",
"4$	c #111716",
". + @ @ @ @ # $ % . & & & & * = - ; > . . , % ' @ @ @ @ ) ! * & & & & . ~ { ] ^ . . . . + @ @ @ @ # $ % . & & & & * / - ; > . . ",
"( _ : < < < [ } | 1 1 2 3 4 5 6 : 7 1 8 8 9 0 a < < < b c d e f 1 1 4 g h i j k l m l ( _ : < < < [ } n 1 1 2 3 4 n o : 7 1 8 8 ",
"p q : r s t u _ v w x y z v A B C D [ E F G H I J K L M N v O y P Q v R i < S T U V P W q X r s t u b v w Y y z v i Z C D [ E ` ",
" ...+.@.#.$.%.v v v &.L B B *.+.=.-.[ ;.u & >.+...,.'.).i v v v Q !.i < ~.{.]._ r +.^. ./.+.(.#._.z v v v &.:.<.B [.+.}.|.[ ;.u ",
"% 1.2.* & ~.3.4.5.6.7.+.8.9.u 0.< a.G p * ~ b.2.> * c.L I D 6.6.+...d.u u e.s ~.f.g.h.% 1.2.* & ~.3.i.5.6.7.+.8.9.u '.< a.G p * ",
"j.j.j.j.k.l.] m.+.n.=.] o.p.G ..q.p & r.s.t.j.j.j.j.u.v.,.w.+.x.y.z.o.S +.N (.A.B.C.D.j.j.j.j.k.l.] m.+.n.=.] o.p.G ..q.p & r.E.",
"O O O z F.@ u.G.H.1.I.J.J.K.L.M.L.N.O.C O O O O O a P P.Q.R.H.S.~ J.J.T.M.M.9 U.V.%.O O O O z s O.u.G.H.1.I.J.J.K.L.M.L.N.W.C O ",
"X.X.4.A I Y.Z.`.j.j. +.+++@+P.P.#+[ K C s : X.$+%+T b &+*+j.j.E.U ++[.=+P.P.-+_ ;+X a K X.4.v I Y.>+`.j.j. +.+++@+P.P.#+[ K C s ",
"+.+.+.5.+.&+j ,+&.&.i v v i &._ %+'+)+M +.6.+.+.6.6.C [ !+w &.%.v v v z &.b ~+V.{+w.6.+.+.+.]++.&+j ^+&.&.i v v i &._ %+5./+M +.",
"+.+.+.+.+.,.(+b.I s v v v v %+t ,._+m :+<+[++.+.+.+.j }+|+6.< z v v v i 3.1+S.m m 2+3++.+.+.+.+.,.(+o.I s v v v v %+t ,._+m :+<+",
"4+/+5+4+6+:+8 _+7++.< r 8+3.C @.9+0+a+b+K.c+6+d+4+4+1._+e+S.=.$+f+s g+i.j h+i+j+k+U.l+4+/+5+4+6+:+8 _+7+m+< a.8+3.C @.C.n+a+b+K.",
"o+p+0+q+q+1 @+r+~ o.p.} +.w.s+b.t+r i q u+b+2.v+q+q+q+n [.w+I.^ x+w.+.} 2.y+z+Y.Y.Y @ A+p+0+q+q+1 @+r+~ B+C+} +.w.s+b.# r i D+u+",
"( K E+w Y.|.O B Y F+_+& W *+G+H+: O T v K ..I+o %+b J+a v [ K+e+:+6+L+M+N+O+i B %.a ..( K o w Y.|.O B P+F+_+& W *+G+H+: O T v K ",
"_.,+s 6.Q+].J+s a J+)+% _+I.S.7.6 -++.C +.+.<+s ;.,+t X.a 4.i R+. m :+m S+: i.6.q.5.+.$.,+s '+q.].J+s a J+T+% _+I.* 6.o -++.C +.",
"3+, L++.+.+.7.6.5.'.% + ! ! U+o.V+} } } } c T+W+..+.+.+.5.+.j 2.m 8 ! ! _+X+>.} } } } 3+, ( +.+.+.6.6.5.'.I.+ ! ! U+o.V+} } } } ",
"I.m Y+'.M x+w...s+_+_+k Z+`+K+e+I. @.@* * :+m |++@M M c +.m.@@m #@P.Y $@%@m r., o.* * I.m b.'.M x+w...s+_+_+k Z+`+&@e+I. @.@* * ",
"*@*@=@-@:+;@>@6+% I.F Q T &._ T ,@'@l.K+*@*@*@*@)@_+> !@T+b.I.~@0 B Y.%.|.J+{@]@^@*@*@*@*@=@-@:+;@>@6+% I.F Q T &._ T ,@'@l.K+*@",
"v /@X.(@_@[.=@:@<@* [@@.5.,+'+}@G |@P.1@v v v |.d 2@w.Y 3@o+b.4@5@,++.H 6@,+7@8@d v v v z 9@(@_@0@=@:@<@* [@@.5.H '+}@G |@P.I v ",
"~.7.w.=.(.4.i a@b@c@F+d@e@A.s+( f@P.-+_ ].g@6@..h@i@~.i T Z.#+j@l+@@A.g.h@u N+k@_ a.3.~.7.w.=.G &+i a@b@c@F+d@e@A.<+( f@P.O+_ Q+",
"D.P.C+}@I 0.a.a v a h l@m@U.l U+& -+_ ~.+.n@o@p@V.: ..m.q@v i I V f U.U.r@% s@T 3.+.+.D.P.t@u@q@0.a.a v a h c@m@U.v@U+& -+_ ~.+.",
"w@`.x@y@z@A@:+B@C@1@|.F.&+++o@D@G+E@F /.} F@G@^.H@I@J@_+> K@;.Y.|.4.&+L@^@4 ]@u+n...D.w@`.h.M@N@A@:+] C@1@|.O@&+++P@D@G+E@F /.` ",
"> I.U.U.U.U.o+& <@7 7 7 7 7 Q@* o.) 7 R@S@)  @r@U.U.U.U.^ * Q@7 7 7 7 7 <@* > 7 T@R@7 , I.U.U.U.U.o+& <@7 7 7 7 7 Q@* o.) 7 R@S@",
"2+U@V@#+#+#+W@7 l C.C.C.C.C.! X@L L.Y@_+_+^.= Z@#+#+#+N R@e Y@C.C.C.C.C.`@J+c v+(+_+(+2+U@ ##+#+#+6@7 l C.C.C.C.C.! X@L L.Y@_+_+",
"$.a v Y.i s '+0@y  #@ k@D .#g@i 4.+#@#1 3@##:.i i Y.a X.S I $#k@@  #.#.#w z G Y O.U.z+_.a v Y.i s 5.0@y V@O.k@h .#g@i 4.+#` 1 %#",
"u 5.g+&#~.L+0@v v v _ <.v v Y.a._.[ a a@} *#(.].].5.+.n.b v v &._ z v i 4.~.[+v J+;.,.u 5.g+&#~.L+a.A v v _ B v v Y.r _.[ a a@} ",
"6+=.=.] B.].&.i < [ q ,+;.H ,.,.,+J+,+=#T+:+0.=.5@T+A.|.i b [ [ -#,+*.c =.=.I K w.#.(+6+=.=.] B.;#&.i < [ q ,+;.H ,.,.]+J+,+x.T+",
"-@h.h.~ >#,#G ;#+.+.w.} '#R@} m.s {.s+1.J.l ~ h.d@d@)#( N 5.+.+.j S !#m.} ;.*.i@~#S.j.-@h.h.~ >#R@G ;#+.+.w.@.'#R@} m.J {.<+2.J.",
"$#$#$#$#@+P.L.{#x+V.)+r._+x@#.,.u ]#^#/#h (#$#$#$#U k@D@_#M ,.p.r.% |+2+x+=.z.d@G+:#K $#$#$#$#@+P.L.] x+V.)+r._+Y+#.,.u ^.^#/#h ",
"a a i v i Y F@> d@~ J.O.P@<#k k k =@-+-#i i a &.v i s #+}+d@d@~ s.P@P.D@k k ^@N =#z v a a i v i Y F@> d@~ J.O.P@<#k k k [#-+;.i ",
"....}@< ;#z X.{.h h [ v }#I `+h !.b m...g+;...+.K ,@L z ,.`+h [.B }#a 9@`+h -.8+5+-+q ....}@< ;#z X.{.h h [ v }#I `+h !._ m...g+",
"+.+.+.+.+.,+|#,#%.i v v v v v g@g@1#:+}+{...+.+.+.+.1+G :+g@z v v v v v Y.q h@:+2#f.n.+.+.+.+.+.,+|#R@%.i v v v v v g@3#4#:+}+G ",
"f.f.f.f.f.!+_+:+1+[.a Y.o T < 5.5#e+l r@* p.f.f.f.f.7@>#m 6#,+Y.: i : z }@8.+ K.l -@* f.f.f.f.f.!+_+7#7.*.a Y.o T < '+1#e+l r@* ",
"(+> ^.S.S.8 s.8#:+0.5.5.t ;#} ] 9#=+a@H+b+A+* H.S.S.(+0#%#~ e@>.6.].+.}@V.a#b+f+U 5 b+(+> ^.S.S.8 s.b#:+0.5.5.t }@@.] 9#=@< Z+b+",
"*+j U U U U 1@c#1 d#r.e#@.@.}+:@ #%+v i -+f#0.O+U U U h a #+r@% '@=...V.g#t+< v v _ f#F@{.U U U U 1@c#1 d#r.e#@.(.}+:@V@%+v i -+",
"_.$+O K 4.< i i Y.6@S.* @@'@^ N v : 0@J+q.+.f.i w ).$+o v z 8+h#o.:+!+r.N+_ z ,@4.8++.$.$+z K 4.< i i Y.6@S.* @@i#j#E A : [.w q.",
"L+C+}@+.+.+.;.-+3.,@>@m m m _+0.r /.+.+.+.+.f@1++.+.+.6.8+}@&+c % m m m B+t ;#+.+.+.+.L+C+}@+.+.+.;.-+3.,@4#m m m _+'.r ..+.+.+.",
"T+:+] (.w...+.+.m.B+m F+E.t+:@d#e@] ] ] ] '#* ^.8...k#l#+...W _+8 1 m#b+Y@*  .] ] ] ] T+:+t@n@w...+.+.m.o.m A+E.t+q+d#e@] ] ] ] ",
"0#0#J.* n#T+V+,.o#m p#Z.q o K q#r#d@G+0#0#0#0#0#d@o.s#t#i@W _+u#@+O+_ w Y U@v#& A+0#0#0#0#J.* n#T+V+,.o#m p#Z.q o K q#r#d@G+0#0#",
"I I [.9#* T@w#S.o.o.x#3.q L X.q@].}+8@Z.I I I 4.=@+ T+1 y#* o.6#N I *.:.[ L 8.z#P@1@I I I [.9#* u.w#S.S.o.j 3.q L X.q@].!+8@Z.I ",
"J [ t x.0.a ++#+1 N.% X+S ( n@+.A#8@k@Y.: T J [...] 0@Y.O+B#F+! 2#V.( ( +.G T@@ [.b %+J [ t m.0.a ++#+1 N.% !+S ( (.+.A#8@k@T : ",
"{.C#_.D#,@j i v I r P@U.S.(+5#E#F#*@_ 3./.6@H+=#<+3.G#4.v T < C@b+l+(+(+4@, N+[.%+t t {.C#_.w.,@G i v I r P@U.S.(+H#E#F#z+b 3.+.",
"@ k z.8.-+I#J#D s i o K#P x @ U.<@5.D +...k+@ ) [@~.@. @@.< o i L#P P M#G@9#/+3.t +.{.@ k z.N#O#I#J#D s i o K#P x O.U.<@^+D +...",
"L.o.m m m m :+G.7 b@x x P#Q#w@L.]@l.j+j R#G@G+_+m m m m , S#F@Y x P#P T#l.U#]@V#{@{.@ L.o.m m m m :+B.7 b@x x P#Q#w@L.]@l.j+j D.",
". m P.@ @ @ D@^#% . . . . . * = - ; > . . , I.U.@ @ @ @ ) ! * . . . . . -@{ ] ^ . . . . m P.@ @ 5 D@^#% . . . . . * = - ; > . . ",
"i@_ : < < < [ } n 1 1 1 j.j.5 a : 7 1 8 8 9 0 a W#< < _ c M#e 1 1 1 j.j.D i +#X#l m l i@-.: < < < < } n 1 1 1 j.j.n a : 7 1 8 8 ",
"p q : r s t *#_ i w x y z i i T C D [ N ` G H I s K L 7@~.v z y P w i i i < S Y.U Y#P '.).: r s t 0.b i w x y %.i i T C D [ N ` ",
" .+.+.@.y._.%.v v v %.:.B %+[.7.=.-.[ ;.p & c +...,.'.).i v v v Q !.v < N x#]._ r +.>  .+.+.(.y.L+%.v v v %.:.B B 0@1+}.|.[ ;.p ",
"% > > (+& u@3.i.'+7.+.+.f.Z#'.0.< a.G p * ~ o.> ^.* `#L I D 7.7.+... $'.'.j s ~.f.g.h.% > > * & N 3.I 6.7.+.+.f.Z#'.0.< a.G <+* ",
"%@%@%@%@j.l.{#m.+.w.=.] o.p.G ..g+p & 7#e F@%@%@%@0+u.v.,.w.+.m.y.A.o.S +.}@(.g.> 8 c@%@%@%@%@j.l.{#m.+.w.=.] o.p.G ..g+p & 7#f ",
"i i i z F.@ u.G.H.1.I.J.i+K.L.M.L.N..$C i i i i i a P P.Q.R.H.S.e+i+i+T.M.M.9 U.;+%.i i i i z +$@$u.G.H.1.I.J.i+K.L.M.L.N..$-+i ",
"K K I v I |.Z.#$%@%@H+8+++@+P.P.#+!.,@C s : K $+%+<.b &+V.%@%@f -+++[.k@P.P.O+_ 7@: a K K i.v I $$Z.#$%@%@H+8+!.%$P.P.` !.,@C s ",
"+.+.+.]++.&+j ,+%.%.i v v i %.-.%+5.T+M +.6.+.+.6.6.C [ !+b %.%.v v v O &._ < &${+w.'++.+.+.&#+.&+j ^+%.%.i v v i %.-.%+^+T+M +.",
"+.+.+.+.+.,.(+o.I O@v v v v %+t ,._+m :+<+[++.+.+.+.j }+*$6.< z v v v A 3.7.S.m m 2+3++.+.+.+.+.,.(+ @I s v v v v %+t ,._+m :+<+",
")+=$T+)+)+:+8 _+!++.< r 8+3.C @.9+0+a+b+K.^#/+=$)+)+2.+ e+S.=.$+;.s g+i.+#h+i+j+K+U.l+)+=$T+)+)+:+8 _+!+m+< r 8+3.C @.-$n+a+b+K.",
"A+p+n+%@%@;$@+r+~ o.p.} +.w.s+b.t+.#i q u+b+2.v+%@%@%@P.[.N@I.6+f.w.+.} > y+*@Y.-.Y @ A+p+n+%@%@1 @+r+>$o.p.} +.w.s+b.m#.#i D+u+",
"( K o w Y.Y.O B Y A+_+& p V.G+[#: i T v X.k#I+E+B _ : a v [ k@,$:+/+L+M+N+O+i %+%.&...( K o w Y.Y.O %+Y l _+& p A#G+H+F.i T v X.",
"_.,+s 6.Q+;#J+s a : )+% _+I.S.7.o -++.'$+.+.<+s -#,+t X.a 4.i 7.. m :+m S+: 4.7.q.5.+.$.,+J 6.q.;#J+s a : T+% _+I.* 6.%+-++.C +.",
"3+, _.+.+.+.6.6.&#<+% + ! ! U+o.)$} } } } c T+_@..+.+.+.&#+.n.;@m 8 ! ! _+s@!$} } } } 3+, _.+.+.+.6.6.,+<+% + ! ! U+B+)$} } } } ",
"I.m b.W V.x+w...s+_+_+k  +h =+~$%  @, {${$:+m |++@A#V.c +.m.!@m l P.Y $@%@|+* , o.{${$I.m b.W V.x+w...s+_+_+k  +h =+~$%  @, {${$",
"]$]$k+-@(+;@j#^ % I.F Q T &._ T ,@'@l.k@]$]$]$]$)@_+> !@e@& I.~@r B Y.&.-.: {@H.^@{.]$]$]$k+-@(+;@>@)+% I.F w T &._ T ,@)#7 k@]$",
"^$i 9@(@|#0@[#m@<@* [@(.5.H 6.}@G |@P.I ^$v ^$Y.d 2@../$%#l b.`#5@,++.H H ,+7@8@M#v v ^$i g@(@|#0@[#:@<@* [@@.5.H '+}@G l.P.I ^$",
"~.7.w.5@m.&+O < d j+F+d@e@($s+( f@P.O+_ Q+g@6@..h@f.H O T Z.` j@l+2.($A.h@u N+k@b a.3.~.7.w.5@} &+z < d j+F+d@e@($<+( f@P.Z@_ Q+",
"D.P.] ;#J u a.a _$a h c@U.:$l U+& -+_ ~.+.n@o@p@M w +.} q@^$v I %$;$:$U.r@% s@T 3.+.+.D.P.] }@s '.a.a _$a D l@U.:$l U+& -+_ ~.+.",
"w@`.x@<$[$}$:+] b@1@Y.+$&+++o@D@G+h+F l#` F@G@^.|$1$2$_+> 8.;.Y._ &+&+3$w@4 ]@u+w...D.w@`.x@<$[$~ :+4$C@1@Y.+$&+++P@D@G+h+F +.} "};
