/* XPM */
static char * old_tiles_xpm[] = {
"64 64 642 2",
"  	c None",
". 	c #3F4753",
"+ 	c #4D5663",
"@ 	c #313844",
"# 	c #545D6C",
"$ 	c #474F5C",
"% 	c #283337",
"& 	c #323D40",
"* 	c #48525D",
"= 	c #272F39",
"- 	c #303B3E",
"; 	c #2E3A3B",
"> 	c #2A323C",
", 	c #4D5662",
"' 	c #323A44",
") 	c #515A69",
"! 	c #565F6E",
"~ 	c #1F2831",
"{ 	c #3C464D",
"] 	c #3E4652",
"^ 	c #2A3439",
"/ 	c #1E292D",
"( 	c #48515E",
"_ 	c #454E59",
": 	c #3E4653",
"< 	c #555E6D",
"[ 	c #3A424F",
"} 	c #2F393D",
"| 	c #343F43",
"1 	c #49525E",
"2 	c #212A32",
"3 	c #303C3E",
"4 	c #293435",
"5 	c #2F393F",
"6 	c #3A444A",
"7 	c #343D43",
"8 	c #303843",
"9 	c #444E57",
"0 	c #464E5C",
"a 	c #2F383E",
"b 	c #404953",
"c 	c #333B45",
"d 	c #384248",
"e 	c #3A4449",
"f 	c #323D3F",
"g 	c #202930",
"h 	c #182129",
"i 	c #4B5461",
"j 	c #4C5561",
"k 	c #222B34",
"l 	c #3E4753",
"m 	c #303A40",
"n 	c #364045",
"o 	c #364046",
"p 	c #2C353C",
"q 	c #444D57",
"r 	c #3A424E",
"s 	c #363F46",
"t 	c #434C57",
"u 	c #2E363F",
"v 	c #394349",
"w 	c #2A3537",
"x 	c #333D43",
"y 	c #283039",
"z 	c #47505C",
"A 	c #404951",
"B 	c #3C4350",
"C 	c #353E45",
"D 	c #333E41",
"E 	c #374147",
"F 	c #30393F",
"G 	c #293239",
"H 	c #3F4951",
"I 	c #49525F",
"J 	c #374247",
"K 	c #303940",
"L 	c #2D3540",
"M 	c #454F59",
"N 	c #404A52",
"O 	c #46505A",
"P 	c #2F3741",
"Q 	c #394248",
"R 	c #2B3638",
"S 	c #2F383F",
"T 	c #303841",
"U 	c #444D5A",
"V 	c #3D474E",
"W 	c #434B58",
"X 	c #262F36",
"Y 	c #202830",
"Z 	c #363E4A",
"` 	c #49515F",
" .	c #313B41",
"..	c #2D353F",
"+.	c #424B58",
"@.	c #48515C",
"#.	c #424B54",
"$.	c #2A3339",
"%.	c #0E1722",
"&.	c #3F4754",
"*.	c #283236",
"=.	c #273235",
"-.	c #263134",
";.	c #263133",
">.	c #272F36",
",.	c #38414A",
"'.	c #454D5B",
").	c #262D37",
"!.	c #2A3539",
"~.	c #0D1721",
"{.	c #2F3742",
"].	c #3B444E",
"^.	c #3C4550",
"/.	c #1D252E",
"(.	c #444C59",
"_.	c #2E373D",
":.	c #1A242A",
"<.	c #19212B",
"[.	c #424A57",
"}.	c #2A3438",
"|.	c #2D363C",
"1.	c #242E31",
"2.	c #253032",
"3.	c #253033",
"4.	c #243032",
"5.	c #121B24",
"6.	c #3D4552",
"7.	c #1C242E",
"8.	c #434B59",
"9.	c #444C5A",
"0.	c #2A313C",
"a.	c #0B1520",
"b.	c #2F3642",
"c.	c #1F2631",
"d.	c #262F35",
"e.	c #161F28",
"f.	c #333D45",
"g.	c #1C262B",
"h.	c #2D3440",
"i.	c #454D5A",
"j.	c #202833",
"k.	c #3B434F",
"l.	c #18202B",
"m.	c #353C48",
"n.	c #19232A",
"o.	c #232C33",
"p.	c #333B47",
"q.	c #3E4752",
"r.	c #232E31",
"s.	c #17202A",
"t.	c #29303B",
"u.	c #1A222C",
"v.	c #0A1520",
"w.	c #39404D",
"x.	c #414956",
"y.	c #161E28",
"z.	c #283238",
"A.	c #1D2630",
"B.	c #2A353A",
"C.	c #212B2E",
"D.	c #1B262B",
"E.	c #2D363D",
"F.	c #2E373E",
"G.	c #3F4850",
"H.	c #4C5462",
"I.	c #2A343B",
"J.	c #47505B",
"K.	c #2C363C",
"L.	c #3D474F",
"M.	c #283335",
"N.	c #323B42",
"O.	c #48515D",
"P.	c #2B343E",
"Q.	c #2B353B",
"R.	c #384147",
"S.	c #272F3A",
"T.	c #38404C",
"U.	c #323E40",
"V.	c #273037",
"W.	c #464F5B",
"X.	c #424C55",
"Y.	c #414A57",
"Z.	c #384249",
"`.	c #3A444B",
" +	c #283038",
".+	c #333A46",
"++	c #48505D",
"@+	c #3B454B",
"#+	c #464F5C",
"$+	c #414B54",
"%+	c #4A535E",
"&+	c #273039",
"*+	c #434D56",
"=+	c #283138",
"-+	c #4B5462",
";+	c #3B444C",
">+	c #3E4850",
",+	c #283336",
"'+	c #2D343F",
")+	c #47515C",
"!+	c #3C4450",
"~+	c #343E44",
"{+	c #2C353B",
"]+	c #353F45",
"^+	c #414A54",
"/+	c #414A53",
"(+	c #343F42",
"_+	c #1A222B",
":+	c #49515E",
"<+	c #2A323A",
"[+	c #27303A",
"}+	c #4C5562",
"|+	c #3C454E",
"1+	c #3C464C",
"2+	c #343E43",
"3+	c #49535E",
"4+	c #28313A",
"5+	c #404952",
"6+	c #1E272E",
"7+	c #38414B",
"8+	c #364146",
"9+	c #303B3F",
"0+	c #434C56",
"a+	c #313A43",
"b+	c #2E393C",
"c+	c #252F34",
"d+	c #434C58",
"e+	c #353F43",
"f+	c #19222A",
"g+	c #48505C",
"h+	c #313C3F",
"i+	c #212933",
"j+	c #353E44",
"k+	c #121C25",
"l+	c #1A252A",
"m+	c #192329",
"n+	c #1A232D",
"o+	c #2E3641",
"p+	c #2E3540",
"q+	c #0E1822",
"r+	c #121C24",
"s+	c #2C343F",
"t+	c #202832",
"u+	c #151F26",
"v+	c #182228",
"w+	c #0B1620",
"x+	c #222A34",
"y+	c #2A313B",
"z+	c #222C30",
"A+	c #354044",
"B+	c #263034",
"C+	c #374049",
"D+	c #4B5460",
"E+	c #464F59",
"F+	c #464F5A",
"G+	c #2F3B3D",
"H+	c #2D373B",
"I+	c #273335",
"J+	c #232B34",
"K+	c #3D4550",
"L+	c #4E5865",
"M+	c #39414D",
"N+	c #333E42",
"O+	c #4F5865",
"P+	c #3C4451",
"Q+	c #4D5664",
"R+	c #2D373D",
"S+	c #3D4451",
"T+	c #343D44",
"U+	c #2C343D",
"V+	c #1C262C",
"W+	c #353F44",
"X+	c #28303A",
"Y+	c #1F282F",
"Z+	c #313A41",
"`+	c #323A43",
" @	c #414B53",
".@	c #242D34",
"+@	c #414955",
"@@	c #1F2A2E",
"#@	c #444D58",
"$@	c #2B343C",
"%@	c #374046",
"&@	c #2C343E",
"*@	c #3A434A",
"=@	c #333C44",
"-@	c #4A5360",
";@	c #272F38",
">@	c #4A535F",
",@	c #4C5662",
"'@	c #343B47",
")@	c #3A454A",
"!@	c #2A333C",
"~@	c #414A56",
"{@	c #47505D",
"]@	c #374146",
"^@	c #2C363B",
"/@	c #424B56",
"(@	c #2F3B3C",
"_@	c #313C3E",
":@	c #404A53",
"<@	c #354045",
"[@	c #293537",
"}@	c #333D42",
"|@	c #394449",
"1@	c #364145",
"2@	c #1D272C",
"3@	c #1C272B",
"4@	c #1D282C",
"5@	c #111B23",
"6@	c #0C1621",
"7@	c #08131E",
"8@	c #162027",
"9@	c #242B36",
"0@	c #1E282D",
"a@	c #0C1620",
"b@	c #152026",
"c@	c #0F1923",
"d@	c #474F5D",
"e@	c #454E5A",
"f@	c #505967",
"g@	c #444D59",
"h@	c #404955",
"i@	c #323945",
"j@	c #4E5765",
"k@	c #3F4853",
"l@	c #333B46",
"m@	c #313944",
"n@	c #1E2630",
"o@	c #454D59",
"p@	c #242C34",
"q@	c #434D57",
"r@	c #2B333D",
"s@	c #4C5563",
"t@	c #3B454C",
"u@	c #373F4B",
"v@	c #2F383D",
"w@	c #353D49",
"x@	c #374148",
"y@	c #363E49",
"z@	c #353E46",
"A@	c #333C43",
"B@	c #141E25",
"C@	c #121B26",
"D@	c #3F4852",
"E@	c #343E45",
"F@	c #202A2F",
"G@	c #172029",
"H@	c #323C42",
"I@	c #1D262E",
"J@	c #1B242C",
"K@	c #424B57",
"L@	c #0F1822",
"M@	c #131C26",
"N@	c #353D46",
"O@	c #404855",
"P@	c #414855",
"Q@	c #252C37",
"R@	c #404754",
"S@	c #222D30",
"T@	c #313A42",
"U@	c #212C30",
"V@	c #232B35",
"W@	c #162028",
"X@	c #323944",
"Y@	c #172127",
"Z@	c #3A414E",
"`@	c #2C333E",
" #	c #202A2E",
".#	c #353D48",
"+#	c #1E282C",
"@#	c #313843",
"##	c #394348",
"$#	c #3E484F",
"%#	c #3D464D",
"&#	c #4E5764",
"*#	c #505A67",
"=#	c #222B33",
"-#	c #39434A",
";#	c #343D45",
">#	c #3B444F",
",#	c #3C454C",
"'#	c #3B454A",
")#	c #38404B",
"!#	c #29313B",
"~#	c #2A323D",
"{#	c #3C4551",
"]#	c #283139",
"^#	c #29313C",
"/#	c #434B57",
"(#	c #3D464E",
"_#	c #2B333E",
":#	c #212A31",
"<#	c #444D56",
"[#	c #47515B",
"}#	c #2E373F",
"|#	c #343C46",
"1#	c #464E5B",
"2#	c #384247",
"3#	c #1F292E",
"4#	c #29323A",
"5#	c #3B444A",
"6#	c #2C3638",
"7#	c #232C34",
"8#	c #111B24",
"9#	c #29313A",
"0#	c #151E27",
"a#	c #1D252F",
"b#	c #18202A",
"c#	c #1B252B",
"d#	c #162026",
"e#	c #1F2830",
"f#	c #141D27",
"g#	c #202831",
"h#	c #282F3B",
"i#	c #1A232A",
"j#	c #182229",
"k#	c #1E2730",
"l#	c #222A33",
"m#	c #282F3A",
"n#	c #1C252C",
"o#	c #1D262C",
"p#	c #172126",
"q#	c #444E58",
"r#	c #4A5460",
"s#	c #525B69",
"t#	c #505966",
"u#	c #3D4652",
"v#	c #293238",
"w#	c #303941",
"x#	c #283137",
"y#	c #1E262F",
"z#	c #3C454F",
"A#	c #4B5561",
"B#	c #273038",
"C#	c #424B55",
"D#	c #515A68",
"E#	c #242C35",
"F#	c #232A34",
"G#	c #4A525F",
"H#	c #38404A",
"I#	c #171F29",
"J#	c #2B323C",
"K#	c #2E3640",
"L#	c #303942",
"M#	c #0F1922",
"N#	c #313A40",
"O#	c #454E58",
"P#	c #353D47",
"Q#	c #202932",
"R#	c #434C55",
"S#	c #424A56",
"T#	c #39444A",
"U#	c #2D363F",
"V#	c #1D262D",
"W#	c #39414C",
"X#	c #2F393E",
"Y#	c #202B2F",
"Z#	c #2B343D",
"`#	c #202B2E",
" $	c #151D28",
".$	c #141E26",
"+$	c #2A333A",
"@$	c #1E2631",
"#$	c #182029",
"$$	c #252E34",
"%$	c #1F292D",
"&$	c #101923",
"*$	c #252D33",
"=$	c #1B252A",
"-$	c #2B3639",
";$	c #2C373A",
">$	c #343C47",
",$	c #48515F",
"'$	c #111A24",
")$	c #293437",
"!$	c #2A3538",
"~$	c #4A5260",
"{$	c #48505E",
"]$	c #212B2F",
"^$	c #2B373A",
"/$	c #101A23",
"($	c #47505E",
"_$	c #495260",
":$	c #374047",
"<$	c #3D4551",
"[$	c #515A67",
"}$	c #1C262D",
"|$	c #394249",
"1$	c #343F44",
"2$	c #333C42",
"3$	c #2D383A",
"4$	c #2F3840",
"5$	c #3A4349",
"6$	c #454E5B",
"7$	c #3D4750",
"8$	c #39424C",
"9$	c #323B41",
"0$	c #252D38",
"a$	c #263033",
"b$	c #3E474F",
"c$	c #242D36",
"d$	c #3B454D",
"e$	c #172128",
"f$	c #2D383B",
"g$	c #323C41",
"h$	c #212B30",
"i$	c #1E272F",
"j$	c #121B25",
"k$	c #2F3A3D",
"l$	c #303A3E",
"m$	c #293436",
"n$	c #151E26",
"o$	c #283237",
"p$	c #364047",
"q$	c #2C3739",
"r$	c #273135",
"s$	c #303743",
"t$	c #232B36",
"u$	c #3B4350",
"v$	c #141C27",
"w$	c #323A46",
"x$	c #1F2731",
"y$	c #2A313D",
"z$	c #212934",
"A$	c #131B26",
"B$	c #383F4C",
"C$	c #161E29",
"D$	c #373E4A",
"E$	c #111A25",
"F$	c #363F48",
"G$	c #323B43",
"H$	c #242D35",
"I$	c #4F5866",
"J$	c #3B444B",
"K$	c #232B33",
"L$	c #252E36",
"M$	c #262E37",
"N$	c #252D36",
"O$	c #1B232D",
"P$	c #19212A",
"Q$	c #1A232C",
"R$	c #1B222D",
"S$	c #212931",
"T$	c #1E262E",
"U$	c #20292F",
"V$	c #101A22",
"W$	c #212932",
"X$	c #222A32",
"Y$	c #192229",
"Z$	c #1E262D",
"`$	c #3D4651",
" %	c #545D6B",
".%	c #293438",
"+%	c #333F42",
"@%	c #262F38",
"#%	c #2F3B3B",
"$%	c #303842",
"%%	c #565F6D",
"&%	c #202931",
"*%	c #2D373C",
"=%	c #313D3F",
"-%	c #293535",
";%	c #323A45",
">%	c #2F373F",
",%	c #2B3537",
"'%	c #2B343B",
")%	c #1F272F",
"!%	c #313943",
"~%	c #46505B",
"{%	c #222D2F",
"]%	c #232D31",
"^%	c #363D49",
"/%	c #242C33",
"(%	c #273136",
"_%	c #353E48",
":%	c #343C48",
"<%	c #252E35",
"[%	c #242E32",
"}%	c #2B343A",
"|%	c #131D25",
"1%	c #232A35",
"2%	c #39424B",
"3%	c #19222C",
"4%	c #3A414D",
"5%	c #18212B",
"6%	c #1F2832",
"7%	c #252F31",
"8%	c #283037",
"9%	c #404854",
"0%	c #4A5361",
"a%	c #424A58",
"b%	c #1D252D",
"c%	c #1B242D",
"d%	c #293139",
"e%	c #343C45",
"f%	c #3B424F",
"g%	c #3F4851",
"h%	c #222C31",
"i%	c #323D41",
"j%	c #222C32",
"k%	c #414B55",
"l%	c #353C49",
"m%	c #1C272C",
"n%	c #0A1420",
"o%	c #303742",
"p%	c #343E42",
"q%	c #242E33",
"r%	c #37404A",
"s%	c #323B45",
"t%	c #29323B",
"u%	c #363F45",
"v%	c #333C45",
"w%	c #3B4450",
"x%	c #364044",
"y%	c #2E393B",
"z%	c #303B3D",
"A%	c #323C40",
"B%	c #363F4A",
"C%	c #2B3539",
"D%	c #19242A",
"E%	c #2A323B",
"F%	c #131C25",
"G%	c #0D1722",
"H%	c #282F39",
"I%	c #525B6A",
"J%	c #404853",
"K%	c #4E5763",
"L%	c #515968",
"M%	c #464E5A",
"N%	c #2C353A",
"O%	c #374048",
"P%	c #3A424D",
"Q%	c #1D272E",
"R%	c #353E47",
"S%	c #3C444F",
"T%	c #0D1621",
"U%	c #262D38",
"V%	c #1D272D",
"W%	c #2E383E",
"X%	c #172028",
"Y%	c #101A24",
". + + + + + + @ # $ % & & & & & & * = - ; > , + + + + , ' ) ! ~ & & & & & & { ] ^ ; / ( + + + + + _ : < [ } & & & & & | 1 2 3 4 ",
"5 6 6 6 6 6 7 8 9 0 a 6 6 6 6 6 b c d e f g 6 6 6 6 6 6 h i j k 6 6 6 6 6 { l m 6 n / o 6 6 6 6 6 p : q r s 6 6 6 6 6 t u v v w ",
"5 6 x 5 5 5 y z 6 0 a 6 6 6 6 A B C 6 6 D g 6 E F 5 5 G . H j k 6 6 6 6 e I G 6 6 J / o 6 m 5 5 K L M N r s 6 6 6 6 O P Q 6 6 R ",
"S T : U U U I 6 v 0 a 6 6 6 6 V W X o 6 D Y 7 Z U U U ` H 6 j k 6 6 6 6 6 z >  .6 J / o ..+.U U U @.6 N r s 6 6 6 6 #.r $.d 6 R ",
"%.&.S *.*.*.=.-.;.r >.K K K K K ,.'.).S !.~.{.].*.*.*.*.-.-.^./.K K K K K F (.Z G _.:.<.[.}.*.*.*.=.-.5 8 |.K K K K K ^.W 2 K 1.",
"2.3.3.4.5.6.: 7.8.9.0.a.b.U c.d.e.[.f.3.3.2.3.3.3.g.h.i.j.k.9.k.a.l.W m.n.o.p.q.3.3.2.2.3.3.r.s.[.Z t.9.U u.v.w.x.y.z.A.'.B.3.C.",
"v v v | D.E.F.] G.H.I.d 6 J.m.d K.@ U L.v v v v d M.2 N.> O.j P.d v V ` Q.R.S.T.J.v v v v v U.e.m V.W.X.Y. .Z.`., = 6  +.+++@+7 ",
"6 6 6 n g.6.#+$+6 %+&+6 6 *+m.d =+-+;+>+6 6 6 6 6 ,+'+(.)+6 A !+~+6 v ( {+]+k.^+/+6 6 6 6 6 (+_+[.:+V 6 :+<+6 6 %+[+@+&+}+|+1+2+",
"6 6 6 n g.6 @+6 6 3+4+v 6 *+m.d v c @+6 6 6 6 6 6 ,+_.@+6 6 G.6.x 6 v ( {+6 p 5+6 6 6 6 6 6 (+6+@+6 6 v I G 6 6 %+[+6 ]+7+6 6 2+",
"6 6 6 8+g.9+D D 0+a+b+D D N '+s 6 6 6 6 6 6 6 6 6 ,+c+D D @+: % D D & d+=+6 6 6 6 6 6 6 6 6 e+f+& D U.g+X h+D D _ i+v 6 6 6 6 j+",
"k+:.l+:.m+:.:.:.:.a.n+o+o+o+p+o+o+o+o+o+{.q+:.l+l+:.m+:.:.:.r+a.s+o+o+o+p+o+o+o+o+o+t+u+l+l+:.m+:.:.:.v+w+x+o+o+o+p+o+o+o+o+o+y+",
"z+D A+A+A+A+A+A+B+z+C+D++.t E+E+F+F+E+E+< h G+A+A+A+A+A+A+H+I+J+@.i K+E+E+F+F+E+E+L+M+I+| A+A+A+A+A+N+3.:.b O+P+_ E+E+F+E+E+* Q+",
"3.v 6 6 6 6 6 R+S+=.a 6 t ' T+6 U+o 6 6 , V+W+6 6 6 6 6 ]+X+H Y+6 N !+K.v Z+`+6 6  @M+b+6 6 6 6 6 6 .@+@@@s { #@$@o %@&@v 6 e 1 ",
"3.*@6 6 6 6 =@!+-@=.a 6 `.F+P+;@>@J.6 6 ,@V+A+6 6 6 6 d '@( )@Y+6 6 5+W.!@q.,@@+6 /+M+b+6 6 6 6 6 T ~@F+@@s 6 @+{@Z a+i $+6 v :+",
"r.D ]@]@]@]@_ V A+-.^@]@]@8+/@d.]@J ]@]@j n.(@8+]@]@]@{ M J _@6+]@]@8+:@> <@J 8+]@G.M+[@| ]@]@]@8+O.6 (+@@}@]@]@|@!+{+]@]@]@1@:+",
"a.2@3@3@4@2@2@3@3@r+5@3@3@2@6@g.3@3@3@3@P a.v+3@3@2@4@3@2@3@m+7@D.3@3@u+8@3@3@3@3@.@9@5@2@3@3@0@2@2@3@2@a@b@3@3@l+c@2@3@3@3@3@..",
"..d@j D+&@e@j j j j j j j f@t.g@j j j j j h@i@j@j k@l@j j j j j j j + Y.m@}+j j j j }+n@Q+j j i+>@j j j j j j i j@i+I j j j j o@",
"p@}+6 n g.v 6 6 6 6 6 6 6 q@m.d 6 6 6 6 6  .W { 6 ,+E.6 6 6 6 6 6 6 6 ( p 6 6 6 6 6 6 r@@.6 (+6+6 6 6 6 6 6 6 6 >@[+6 6 6 6 6 2+",
"r@}+6 n g.v 6 6 6 6 6 6 6 *+m.d 6 6 6 6 s X s@t@6 ,+E.6 6 6 6 6 6 6 v ( {+6 6 6 6 d K u@@.6 (+6+6 6 6 6 6 6 6 6 %+[+6 6 6 6 6 v@",
">@H 6 n g.v 6 6 6 6 6 6 6 *+w@d 6 6 6 x@r {@9 6 6 ,+E.6 6 6 6 6 6 6 v ( {+6 6 6 d y@8.1 { 6 (+6+6 6 6 6 6 6 6 6 %+X+6 6 6 6 z@u@",
"A@A@A@5 B@X A@A@A@A@A@A@A@z@C@$.A@A@p 0.D@E@A@A@A@F@G@H@A@A@A@A@A@A@A@S.I@N.A@K J@K@s A@A@A@^@L@p A@A@A@A@A@A@A@a+M@R+A@x X Z N@",
"m.O@O@O@P@P@x.Q@R@w@D.S@S@S@S@S@S@T@t+U@S@V@O@O@O@P@P@O@0.6.+@W@S@S@S@S@S@S@c+X@:.S@Y@S+O@O@O@P@O@Z@b.O@`@ #S@S@S@S@S@S@.#G@S@+#",
"N.V V V V V t@@#j 0 _.##########$#W S E G+2 %#V V V V V p@&#*#=###########d z a+o & / -#V V V V V ;#: j r W+##########*+># .n 4 ",
"5 6 6 @+@+6 G : G.0 a 6 6 6 6 ,#k@Z+6 6 D g 6 6 @+@+@+o t.O j k 6 6 6 6 6 F+!@d 6 J / o 6 '#@+@+@+=#i.#.r s 6 6 6 6 H )#]+6 6 R ",
"S H@!#~#~#~#{#5+v 0 a 6 6 6 6 /+M+~+6 6 D g d ]#~#~#~#8 _ 6 j k 6 6 6 6 v :+=+v 6 J / o F.^#~#~#> /#(#N r s 6 6 6 6 @._#E 6 6 R ",
":#/#M <#<#<#H (+N+d@S 6 6 6 6 6 [#+@}#6 (+G@|#>@q <#<#9 e+(+D+J+6 6 6 6 6 H 1#y@o 2#3#4#$ 9 <#<#<#1+(+{ k.o 6 6 6 6 @+O.] S 5#6#",
"8@7#:.:.8#J+V@8#9#h.7.0#a#r@0#J@b#b.J+V+c#d#e#6+:.u+_+> k+i+L 9@0#f#!#g#e._+h#_#i#V+v+i#2 :.j#5@= k#G@r@_#b#f#l#m#f#J@a#@ n#o#p#",
"| | | 3 :.t q#m@r#s#..$.|+O+m@W+G . O.e+| | | | D -.c O.r@i t#u#v#w#1 {@x#]+L I { | | | | | (@y#J.z#u#A#Q+B#$.C#D#E#2#B#'.q@(+} ",
"6 6 6 n D.F#i@_ 6 G#=+6 6 0+m.d X 1#H##.6 6 6 6 6 ,+I#J#O@5+J.K#v 6 v ( {+7 P+L#z 6 6 6 6 6 (+M#X+Z #@(#[.N#6 6 %+[+@+&+/@k@V 2+",
"6 6 6 n g._ O#t@6 F+L v 6 *+m.d ~+P+t@6 6 6 6 6 6 ,+P#O.V 6 { +.5 6 v ( {+v r@O#6 6 6 6 6 6 (+Q#)+R#`.6 1 y 6 6 %+[+6 F.S#6 6 2+",
"6 6 6 n g.J d d N K@z.2#d C#w@d 6 Z.6 6 6 6 6 6 6 ,+Q.d d T#F+U#]@d E ( p 6 E t@6 6 6 6 6 6 (+V#d d 2#O#W#X#2#d 1 X+6 v -#6 6 2+",
"G v#v#X B@g.Y#Y#Z#J@Y#`#`#$@ $=#v#v#v#v#v#G v#v#G V+.$Y#Y#+$@$@@`#`#@@!##$v#v#v#v#v#G G v#v#$$M#%$Y# #s+:.Y#`#`#U+&$X v#v#v#v#*$",
"=$-$;$;$;$;$;$;$[@Y@>$s@,$I I I I I I I j@'$)$;$;$;$;$;$;$!$z+7.~$H.{$I I I I I I H.m.]$^$;$;$;$;$;$;$=./$l Q+($_$I I I I I -@$ ",
";.2#6 6 6 6 6 :$r@=.F.(#<$K v v R+##v v [$}$N+6 6 6 6 6 |$=+1$Y+@+#@!@E v ~+2$v v M M+3$v 6 6 6 6 6  .4$@@]+X.l@T+|@##E.e v 1+i ",
"3.5$6 6 6 6 ]+J+i =.a 6 G.+@;@Z+6$7$6 6 ,@V+A+6 6 6 6 6 B#r N Y+6 6 g@8 m 8$i.6 6 /+M+b+6 6 6 6 6 9$0$r#@@s 6 X.M+4#=@d@{ 6 v :+",
"a$E 6 6 6 6 t >@b$-.a 6 6 V f@c$b$#.6 6 , V+D 6 6 6 6 d$-@9 D Y+6 6 t@,@{.d$R#`.6 /+M+3$##6 6 6 6 W.@.6 @@o 6 6 0+{$u H G.6 v 1 ",
"e$R f$f$f$f$g$f$;$Y#h$f$f$f$i$=.f$f$f$f$_ j$-.3$f$f$f$k$l$f$m$n$;$f$f$o$0@;$f$f$f$p$w@0@q$f$f$f$3$g$f$q$m+r$f$f$-$I@w f$f$f$;$/#",
"V@s$k.k.t$.+k.k.k.k.k.k.k.u$v$i@k.k.k.k.k.w$x$k.k..+t$k.k.k.k.k.k.k.k.y$z$u$k.k.k.k.u$A$B$k.!+C$T.k.k.k.k.k.k.k.D$E$T.k.k.k.k..#",
";@+ 5+V :#H 5+5+5+5+5+5+5+%+w@>+5+5+5+5+5+F$&.9 5+m G$5+5+5+5+5+5+5+#.~$T@5+5+5+5+5+N X+}+5+{ l#N 5+5+5+5+5+5+H O+> N 5+5+5+5+*@",
"H$j 6 n g.v 6 6 6 6 6 6 6 *+m.d 6 6 6 6 6 K 9.t@6 ,+E.6 6 6 6 6 6 6 v ( {+6 6 6 6 6 v L @.6 (+6+6 6 6 6 6 6 6 6 %+[+6 6 6 6 6 2+",
"(.@.6 n g.v 6 6 6 6 6 6 6 *+m.d 6 6 6 v 4#'@I$J$6 ,+E.6 6 6 6 6 6 6 v ( {+6 6 6 6 K &@` X.6 (+6+6 6 6 6 6 6 6 6 %+[+6 6 6 6 %@K$",
"b$v 6 n :.x 6 6 6 6 6 6 6 $+m#o 6 6 d c -@9 6 6 T#=.L$v 6 6 6 6 6 6 v ] G v 6 v E.{@@.{ 6 6 N+h E 6 6 6 6 6 6 6 t Q#d 6 6 ]+r t ",
"J+M$M$N$O$c.M$Y M$7#6+Y+Y+J@/$n$Y+:#P$Q$H$e#M$M$M$n@R$N$S$N$M$T$Y+Y+U$5@V$6+Y+W$~.;@T$N$M$M$J+R$i+H$X$M$W$Y+Y+Y+h /$Y$Y+p@'$W$Z$",
"`$D+D+D+D+D+D+m@ %d@.%+%+%+%+%+%| * @%& #%!#D+D+D+D+D+D+$%) %%&%(++%+%+%+%N+H k.*%(@%$W.D+D+D+D+D+t &.# k.- +%+%+%+%+%J z .@=%-%",
"5 6 6 6 6 6  .;%0+0 a 6 6 6 6 6 ^+a+v 6 & g 6 6 6 6 6 6 #$-@j k 6 6 6 6 6 >+k.H@6 1@/ o 6 6 6 6 6 G &.*+r s 6 6 6 6 6 /@>%6 v ,%",
"5 v F {+{+'%r@J.v 0 a 6 6 6 6 /+Z@o 6 6 D g 6 ~+{+{+{+V.[.L.j k 6 6 6 6 |@I +$6 6 J / o Q |.{+{+p ;%q N r s 6 6 6 6 @.s+v 6 6 R ",
"E.a+K@++++++I v ##0 a 6 6 6 6 { o@@%~+6 D )%N.!+{@++++i V v j k 6 6 6 6 6 F+K#5 v J / ~+!%1#++++{@~%v 5+r s 6 6 6 6 5+u#G E 6 R ",
"a.P+z.S@S@{%S@]%S@^%/%p p {+p p =@/#V@'%(%a.h._%S@S@S@{%]%]%H#Q$p p p p p {+h@:%<%^ v+C$] [%S@S@{%S@]%}%s+G p p p p p H#+@y#p C.",
"m$m$m$,+|%x.K@t+{@_$_#&$l@I 1%$._+U 2%m$m$m$m$m$,+%$8 ( V@O@` : c@a#$ r V#V.:%d+!$m$m$m$m$m$-.3%1#4%L :+` 7.&$^.#+5%K.6%` m m$7%",
"6 6 6 A+g.8%$.9%(#0%'%6 6 M m.d p l@a%H 6 6 6 6 v M.b%|...O D+> 6 6 @+` {+E _#>$1 6 6 6 6 6 D .$}%<%#+N O@2$6 v j [+6 ]#l@{@{ 2+",
"6 6 6 n g.x.:+N 6 1 !#*@6 *+m.d +$_$t@V 6 6 6 6 6 ,+s$d@J.6 >+: x 6 v ( {+s T.0+G.6 6 6 6 6 (+c%6$>@1+v I d%6 6 %+[+`.]#i d$t@2+",
"6 6 6 n g.v 6 6 6 1 &+v 6 *+m.d 6 e%@+6 6 6 6 6 6 ,+|.v 6 6 A f%j+6 v ( {+6 a g%6 6 6 6 6 6 (+6+6 6 6 6 {@+$6 6 %+[+6 :$,.6 6 2+",
"d d d 1$=$f$- - b ..f$- - L.^#x d d d d d d d d d =.h%- - v r =.- - k$9%X d d d d d d d d d i%e$k$- - e@j%k$- - k%x$E d d d d 2$",
"r+2@2@2@2@2@2@2@2@a@c.w@l%w@w@w@w@w@w@w@Z 6@g.2@2@2@2@2@2@m%.$n%p.w@w@w@w@w@w@w@w@w@9@8@2@2@2@2@2@2@2@:.a.S.w@l%w@w@w@w@w@w@w@o%",
"]%p%8+8+8+8+8+1@q%r.F$O.O@g%R#R#C#R#R#R## n.- 8+8+8+8+8+8+^@)$E#M I r%R#R#X.X.R#R#+ M+m$n 8+8+8+8+8+2+3.g.g%}+T.$+R#R#C#R#R#E++ ",
"3.5$6 6 6 6 v +$O@=.a 6 q s%Z+v {.s 6 6 ,@V+A+6 6 6 6 6 x >  @Y+6 H . G d T@e%6 6 /+M+b+6 6 6 6 6 v &%g@@@s ,#F+t%7 u%8 v 6 v :+",
"3.v 6 6 6 6 z@x.1 -.a 6 6 F++.@%* @.6 6 ,@V+W+6 6 6 6 E M+>@##Y+6 6 G.G#&@k@, @+6 /+M+b+6 6 6 6 6 v%6$q @@s 6 v 1 w%' >@X.6 v :+",
"U@=%A+A+A+x%*+v | ;.}%A+A+A+z#c+A+A+A+x%D+j#y%A+A+A+A+t@ @A+z%V#A+A+A+(#B#N+A+A+A+$#M+I+N+A+A+A+W+M 8+D 3#A%A+A+E B%C%A+A+A+W+O.",
"a.:.:.:.:.:.:.:.:.8#8#:.:.l+a.D%:.:.:.:.E%6@u+:.:.:.:.:.:.:.e$v.n.:.:.F%.$:.:.:.:.&%j.M#:.:.:.:.:.:.:.l+G%.$:.:.j#q+:.:.:.:.:.H%",
"K#i + j &@z , , , , , , , I%s+F+, , , , , S#Z f@+ J%.#, , , , , , , O+'.c + , , , , K%i+L%+ , k i , , , , , , , s#t$D+, , , , M%",
"7#A#6 n g.v 6 6 6 6 6 6 6 0+m.d 6 6 6 6 6  .W t@6 ,+E.6 6 6 6 6 6 6 v ( p 6 6 6 6 6 6 r@@.6 (+6+6 6 6 6 6 6 6 6 %+[+6 6 6 6 6 2+",
"o+}+6 n g.v 6 6 6 6 6 6 6 *+m.d 6 6 6 6 x .@Q+t@6 ,+E.6 6 6 6 6 6 6 v ( {+6 6 6 6 E p r [#6 (+6+6 6 6 6 6 6 6 6 %+[+6 6 6 6 6 N%",
"3+V 6 n g.v 6 6 6 6 6 6 6 0+>$d 6 6 6 O%&.>@#.6 6 ,+K.6 6 6 6 6 6 6 v ++Q.6 6 6 E P%{@@.@+6 (+Q%6 6 6 6 6 6 6 6 1 = 6 6 6 6 R%S%",
"5 5 5 ^@r+2 S 5 5 5 5 5 5 w#T%<%5 S x#U%2%5 5 5 S V%F%W%5 5 5 5 5 5 5 i+_+F.5 p X%<$K 5 5 5 o$~.=+5 5 5 5 5 5 5 U+Y%G 5 5 :#;%>%"};
