/* XPM */
static char * regular_tiles_xpm[] = {
"64 64 411 2",
"  	c None",
". 	c #424B56",
"+ 	c #48525D",
"@ 	c #4F5866",
"# 	c #424A58",
"$ 	c #2C363B",
"% 	c #343F43",
"& 	c #333E41",
"* 	c #2E3A3B",
"= 	c #283039",
"- 	c #48515D",
"; 	c #4A535F",
"> 	c #535C6B",
", 	c #272F39",
"' 	c #303B3E",
") 	c #242F32",
"! 	c #3D4651",
"~ 	c #49525D",
"{ 	c #4E5764",
"] 	c #48505E",
"^ 	c #293338",
"/ 	c #333E42",
"( 	c #353E45",
"_ 	c #3A444A",
": 	c #3C464C",
"< 	c #434B58",
"[ 	c #313B41",
"} 	c #323D40",
"| 	c #202830",
"1 	c #49525E",
"2 	c #28303A",
"3 	c #384348",
"4 	c #313A41",
"5 	c #394349",
"6 	c #47505D",
"7 	c #2D363D",
"8 	c #49535E",
"9 	c #333D43",
"0 	c #384248",
"a 	c #3A444B",
"b 	c #1F282F",
"c 	c #2F393F",
"d 	c #384247",
"e 	c #1A242A",
"f 	c #212C30",
"g 	c #242E32",
"h 	c #303844",
"i 	c #242D34",
"j 	c #2A333A",
"k 	c #252F34",
"l 	c #0E1822",
"m 	c #202B2F",
"n 	c #323B44",
"o 	c #1E2630",
"p 	c #293339",
"q 	c #182228",
"r 	c #212B2F",
"s 	c #343B47",
"t 	c #212A31",
"u 	c #262F35",
"v 	c #2B3639",
"w 	c #283436",
"x 	c #151F28",
"y 	c #464E5B",
"z 	c #49525F",
"A 	c #4B5361",
"B 	c #222A34",
"C 	c #283336",
"D 	c #2A3638",
"E 	c #2F3641",
"F 	c #424A57",
"G 	c #192229",
"H 	c #293537",
"I 	c #151E26",
"J 	c #4B5462",
"K 	c #29303B",
"L 	c #263034",
"M 	c #343F42",
"N 	c #1A242B",
"O 	c #464F5A",
"P 	c #313944",
"Q 	c #293436",
"R 	c #2B343B",
"S 	c #4B5461",
"T 	c #262F36",
"U 	c #353F44",
"V 	c #1C262B",
"W 	c #434D56",
"X 	c #383F4C",
"Y 	c #374147",
"Z 	c #3B454B",
"` 	c #444E58",
" .	c #293437",
"..	c #4A5360",
"+.	c #364045",
"@.	c #424B54",
"#.	c #383F4B",
"$.	c #394449",
"%.	c #414B54",
"&.	c #374047",
"*.	c #323C41",
"=.	c #172128",
"-.	c #2D383B",
";.	c #2E393C",
">.	c #3C464E",
",.	c #252D37",
"'.	c #333C43",
").	c #273235",
"!.	c #1F292F",
"~.	c #3F4853",
"{.	c #333D42",
"].	c #2B363A",
"^.	c #39434A",
"/.	c #2B333E",
"(.	c #303940",
"_.	c #162026",
":.	c #1E292D",
"<.	c #1F292E",
"[.	c #1F292D",
"}.	c #131C24",
"|.	c #272E39",
"1.	c #39404D",
"2.	c #39414D",
"3.	c #39404C",
"4.	c #0C1520",
"5.	c #1D282C",
"6.	c #1C272C",
"7.	c #0D1722",
"8.	c #353D49",
"9.	c #2D343F",
"0.	c #131D25",
"a.	c #151F26",
"b.	c #222934",
"c.	c #283335",
"d.	c #374146",
"e.	c #354044",
"f.	c #384049",
"g.	c #414A53",
"h.	c #545D6C",
"i.	c #19232A",
"j.	c #313C3F",
"k.	c #1F2830",
"l.	c #253033",
"m.	c #333C44",
"n.	c #404A53",
"o.	c #515A68",
"p.	c #2C3739",
"q.	c #232E32",
"r.	c #4D5662",
"s.	c #1C252C",
"t.	c #343E42",
"u.	c #1D262D",
"v.	c #3B454C",
"w.	c #353F43",
"x.	c #232E31",
"y.	c #4C5561",
"z.	c #172129",
"A.	c #2D393A",
"B.	c #2F3B3D",
"C.	c #1B242B",
"D.	c #374247",
"E.	c #434B59",
"F.	c #222D30",
"G.	c #313D3F",
"H.	c #263134",
"I.	c #293238",
"J.	c #47515B",
"K.	c #151D28",
"L.	c #1D272E",
"M.	c #1C262D",
"N.	c #1D262E",
"O.	c #161F29",
"P.	c #17202A",
"Q.	c #182128",
"R.	c #29313B",
"S.	c #141D28",
"T.	c #19232B",
"U.	c #1C252D",
"V.	c #192329",
"W.	c #1B252D",
"X.	c #131C27",
"Y.	c #182229",
"Z.	c #1E282F",
"`.	c #262E39",
" +	c #141C27",
".+	c #1A232A",
"++	c #1B252C",
"@+	c #262F39",
"#+	c #4B5460",
"$+	c #4C5562",
"%+	c #525B69",
"&+	c #2B323E",
"*+	c #47505C",
"=+	c #404954",
"-+	c #323B45",
";+	c #4D5663",
">+	c #4C5462",
",+	c #2C343E",
"'+	c #2B333D",
")+	c #313945",
"!+	c #444C58",
"~+	c #444D58",
"{+	c #303743",
"]+	c #384249",
"^+	c #363E4A",
"/+	c #283237",
"(+	c #232C33",
"_+	c #2D353D",
":+	c #0B1520",
"<+	c #1D272C",
"[+	c #101923",
"}+	c #2C353C",
"|+	c #212933",
"1+	c #161F27",
"2+	c #2A3439",
"3+	c #101A23",
"4+	c #2E373E",
"5+	c #0E1722",
"6+	c #404955",
"7+	c #474F5C",
"8+	c #48505D",
"9+	c #38404C",
"0+	c #222C30",
"a+	c #283235",
"b+	c #464F5C",
"c+	c #48515E",
"d+	c #212932",
"e+	c #3C4450",
"f+	c #3D4552",
"g+	c #353E44",
"h+	c #394348",
"i+	c #303C3E",
"j+	c #313A40",
"k+	c #3F4951",
"l+	c #313C3E",
"m+	c #303A40",
"n+	c #182129",
"o+	c #464F59",
"p+	c #273035",
"q+	c #2C363C",
"r+	c #0A1420",
"s+	c #2D3540",
"t+	c #343B46",
"u+	c #333B46",
"v+	c #333A46",
"w+	c #0A141F",
"x+	c #141D25",
"y+	c #18202B",
"z+	c #262D39",
"A+	c #0D1721",
"B+	c #0A1520",
"C+	c #2A323D",
"D+	c #343C47",
"E+	c #0F1924",
"F+	c #364145",
"G+	c #454E58",
"H+	c #323945",
"I+	c #333B45",
"J+	c #4E5665",
"K+	c #1C262C",
"L+	c #434C56",
"M+	c #343E43",
"N+	c #364146",
"O+	c #354045",
"P+	c #424C55",
"Q+	c #313844",
"R+	c #283238",
"S+	c #373F4B",
"T+	c #364046",
"U+	c #212A32",
"V+	c #0F1822",
"W+	c #1B252A",
"X+	c #1B252B",
"Y+	c #1A252A",
"Z+	c #232C34",
"`+	c #1C242C",
" @	c #222A32",
".@	c #0F1922",
"+@	c #202831",
"@@	c #111B23",
"#@	c #172027",
"$@	c #0F1823",
"%@	c #19222A",
"&@	c #3B444F",
"*@	c #555E6D",
"=@	c #141D27",
"-@	c #2E393B",
";@	c #1B242D",
">@	c #505967",
",@	c #353D48",
"'@	c #545D6B",
")@	c #2B3638",
"!@	c #4F5966",
"~@	c #3C454C",
"{@	c #273234",
"]@	c #172127",
"^@	c #0E1823",
"/@	c #293337",
"(@	c #39424C",
"_@	c #444C5A",
":@	c #454D5A",
"<@	c #414956",
"[@	c #444C59",
"}@	c #1D242F",
"|@	c #3E4653",
"1@	c #242C36",
"2@	c #28303B",
"3@	c #3E4652",
"4@	c #3A424F",
"5@	c #48515C",
"6@	c #323944",
"7@	c #3C464D",
"8@	c #4C5563",
"9@	c #273037",
"0@	c #454F59",
"a@	c #151F27",
"b@	c #3F4851",
"c@	c #202732",
"d@	c #343D44",
"e@	c #3A424E",
"f@	c #3E4850",
"g@	c #252C37",
"h@	c #2F3742",
"i@	c #2E3641",
"j@	c #262D38",
"k@	c #1C242E",
"l@	c #18212A",
"m@	c #1A2329",
"n@	c #404953",
"o@	c #4C5662",
"p@	c #2D373C",
"q@	c #262E37",
"r@	c #273039",
"s@	c #364044",
"t@	c #3B444E",
"u@	c #2A3339",
"v@	c #1E272F",
"w@	c #2E383E",
"x@	c #162027",
"y@	c #1E282D",
"z@	c #20282F",
"A@	c #252E35",
"B@	c #262E35",
"C@	c #212B30",
"D@	c #0C1620",
"E@	c #2D353E",
"F@	c #1A222C",
"G@	c #141E25",
"H@	c #1E282C",
"I@	c #1D272B",
"J@	c #222B31",
"K@	c #2F3A3D",
"L@	c #172029",
"M@	c #2C373B",
"N@	c #2E3A3C",
"O@	c #303843",
"P@	c #464F5D",
"Q@	c #2C383A",
"R@	c #454E5A",
"S@	c #2C343F",
"T@	c #2A3538",
"U@	c #454E59",
"V@	c #2E393D",
"W@	c #374149",
"X@	c #2F383F",
"Y@	c #242F33",
"Z@	c #2A3537",
"`@	c #2F393E",
" #	c #353F45",
".#	c #272F3A",
"+#	c #404855",
"@#	c #121B26",
"##	c #29303C",
"$#	c #3F4754",
"%#	c #3D474E",
"&#	c #535C6A",
"*#	c #1E272E",
"=#	c #3D464D",
"-#	c #505966",
";#	c #2B3739",
">#	c #333F42",
",#	c #4B5560",
"'#	c #161F28",
")#	c #202A2E",
"!#	c #323D41",
"~#	c #273036",
"{#	c #47505B",
"]#	c #29323B",
"^#	c #2A323B",
"/#	c #121C24",
"(#	c #232B35",
"_#	c #262E38",
":#	c #202931",
"<#	c #2A323C",
"[#	c #2D3440",
"}#	c #1C242D",
"|#	c #232B34",
"1#	c #141D26",
"2#	c #232C35",
"3#	c #4F5865",
"4#	c #343C48",
"5#	c #424B55",
"6#	c #293239",
"7#	c #333B47",
"8#	c #242D33",
"9#	c #0C1621",
"0#	c #252E36",
"a#	c #1E262E",
"b#	c #111A24",
"c#	c #0E1821",
"d#	c #1B242C",
". + + + + + + + @ # $ % % % % % % % % & * = - + + + + + + ; > , % % % % % % % % % ' ) ! + + + + + + ~ { ] ^ % % % % % % % % / * ",
"( _ _ _ _ _ _ _ : < [ _ _ _ _ _ _ _ _ _ } | _ _ _ _ _ _ _ _ 1 2 _ _ _ _ _ _ _ _ _ 3 ) 4 _ _ _ _ _ _ _ 5 6 7 _ _ _ _ _ _ _ _ _ / ",
"( _ _ _ _ _ _ _ : < [ _ _ _ _ _ _ _ _ _ & | _ _ _ _ _ _ _ _ 8 2 _ _ _ _ _ _ _ _ _ 5 ) 4 _ _ _ _ _ _ _ 5 6 7 _ _ _ _ _ _ _ _ _ % ",
"9 0 0 0 0 0 0 0 a < [ _ _ _ _ _ _ _ _ _ & b 0 0 0 0 0 0 0 0 ~ 2 _ _ _ _ _ _ _ _ _ 5 ) c 0 0 0 0 0 0 0 d 6 7 _ _ _ _ _ _ _ _ _ % ",
"e f f f f f f f g h i j j j j j j j j j k l m f f f f f f f n o j j j j j j j j j p e q f f f f f f f r s t j j j j j j j j j u ",
"v v v w x y z z z z z z z A B C v v v v v v v v D r E z z z z z z z z F G v v v v v v v v v H I < z z z z z z z J K L v v v v v ",
"_ _ _ M N _ _ _ _ _ _ _ _ O P 5 _ _ _ _ _ _ _ _ 5 Q R _ _ _ _ _ _ _ _ S T _ _ _ _ _ _ _ _ _ U V 5 _ _ _ _ _ _ _ W X Y _ _ _ _ _ ",
"_ _ _ % N Z _ _ _ _ _ _ _ ` P 5 _ _ _ _ _ _ _ _ _  .R _ _ _ _ _ _ _ _ ..T _ _ _ _ _ _ _ _ _ +.V 5 _ _ _ _ _ _ _ @.#.Y _ _ _ _ _ ",
"_ _ _ % N a _ _ _ _ _ _ _ ` P 5 _ _ _ _ _ _ _ _ _  .R _ _ _ _ _ _ _ $...T _ _ _ _ _ _ _ _ _ +.V 5 _ _ _ _ _ _ _ %.#.Y _ _ _ _ _ ",
"&.&.&.*.=.-.;.;.;.;.;.;.;.>.,.'.&.&.&.&.&.&.&.&.&.).!.;.;.;.;.;.;.;.;.~.b &.&.&.&.&.&.&.&.&.{.e ].;.;.;.;.;.;.;.^./.(.&.&.&.&.&.",
"_.:.:.:.<.[.:.:.:.}.|.1.2.3.2.2.1.1.1.1.2.4.5.:.:.[.<.:.:.:.6.7.8.2.2.2.2.1.1.1.1.1.9.0.:.:.:.<.[.:.:.:.a.b.2.2.3.2.2.1.1.1.1.1.",
"c.+.d.d.d.d.d.d.e.g f.g.g.g.g.g.g.g.g.g.h.i.' d.d.d.d.d.d.Y j.k.%.g.g.g.g.g.g.g.g.~ < l.U d.d.d.d.d.d.+.).m.g.g.g.g.g.g.g.g.n.o.",
"p._ _ _ _ _ _ _ 5 q.[ _ _ _ _ _ _ _ _ _ r.s.e._ _ _ _ _ _ _ t.u._ _ _ _ _ _ _ _ _ v.< )._ _ _ _ _ _ _ _ ).7 _ _ _ _ _ _ _ _ _ + ",
"p._ _ _ _ _ _ _ 5 q.[ _ _ _ _ _ _ _ _ _ r.s.w._ _ _ _ _ _ _ t.u._ _ _ _ _ _ _ _ _ : < ).5 _ _ _ _ _ _ _ ).7 _ _ _ _ _ _ _ _ _ ~ ",
"l.} e.e.e.e.e.e.& x.$ e.e.e.e.e.e.e.e.e.y.z.A.w.e.e.e.e.e.e.B.C.e.e.e.e.e.e.e.e.e.D.E.F.G.e.e.e.e.e.e.M H.I.e.e.e.e.e.e.e.e.e.J.",
"K.L.L.L.G M.L.L.N.O.P.N.L.N.Q.s.L.L.L.L.R.S.T.L.L.U.V.L.L.L.W.X.U.L.L.C.Y.L.L.L.L.Z.`. +L.L.L..+++L.L.N.P.O.L.L.L.q C.L.L.L.L.@+",
"y.y.y.#+,.; y.y.y.y.y.y.$+%+&+*+y.y.y.y.y.y.y.y.$+=+-+$+y.y.y.y.y.y.;+>+,+$+y.y.y.y.y.y.y.y.#+'+*+y.y.y.y.y.y.y.%+)+!+y.y.y.y.y.",
"_ _ _ % N Z _ _ _ _ _ _ _ ` P 5 _ _ _ _ _ _ _ _ _  .R _ _ _ _ _ _ _ _ ..T _ _ _ _ _ _ _ _ _ +.V 5 _ _ _ _ _ _ _ %.#.Y _ _ _ _ _ ",
"_ _ _ % N Z _ _ _ _ _ _ _ ` P 5 _ _ _ _ _ _ _ _ _  .R _ _ _ _ _ _ _ _ ..T _ _ _ _ _ _ _ _ _ +.V 5 _ _ _ _ _ _ _ @.#.Y _ _ _ _ _ ",
"_ _ _ % N _ _ _ _ _ _ _ _ ~+{+5 _ _ _ _ _ _ _ _ _  .j _ _ _ _ _ _ _ _ z T _ _ _ _ _ _ _ _ _ +.V ]+_ _ _ _ _ _ _ %.^+Y _ _ _ _ _ ",
"7 7 7 /+l (+7 7 7 7 7 7 7 _+:+i 7 7 7 7 7 7 7 7 7 <+[+}+7 7 7 7 7 7 7 |+1+j 7 7 7 7 7 7 7 7 2+3+| 7 7 7 7 7 7 7 4+5+t 7 7 7 7 7 ",
"6+7+7+7+7+7+7+7+8+9+0+c.c.a+a+a+c.c.c.).).|.b+7+7+7+7+7+7+7+c+d+C c.c.a+a+a+c.c.c.).<.e+7+7+7+7+7+7+7+6 f+<.c.c.a+a+a+c.c.c.).).",
"g+_ _ _ _ _ _ _ @.< 4 _ _ _ _ _ _ _ _ h+i+| ^._ _ _ _ _ _ v.;+2 _ _ _ _ _ _ _ _ _ e.) j+_ _ _ _ _ _ _ k+] 7 _ _ _ _ _ _ _ _ 5 l+",
"( _ _ _ _ _ _ _ : < [ _ _ _ _ _ _ _ _ _ & | _ _ _ _ _ _ _ _ 8 2 _ _ _ _ _ _ _ _ _ 5 ) 4 _ _ _ _ _ _ _ 5 6 7 _ _ _ _ _ _ _ _ _ % ",
"( _ _ _ _ _ _ _ : < [ _ _ _ _ _ _ _ _ _ & | _ _ _ _ _ _ _ _ 8 2 _ _ _ _ _ _ _ _ _ 5 ) j+_ _ _ _ _ _ _ 5 6 7 _ _ _ _ _ _ _ _ _ % ",
"2+j.j.j.j.j.j.j.% F m+5 5 5 5 5 5 5 5 5 } n+' j.j.j.j.j.j.j.o+2 5 5 5 5 5 5 5 5 5 0 x.p+j.j.j.j.j.j.j.' b+q+5 5 5 5 5 5 5 5 5 / ",
"V V V e r+s+t+t+u+u+u+u+u+v+w+=.V V V V V V V V V x+y+s t+t+u+t+u+u+u+z+A+V V V V V V V V V V B+C+t+t+t+u+s u+u+D+E+a.V V V V V ",
"F+F+F+j.M.G+W W W W W W W $+H++.F+F+F+F+F+F+F+F+e.w I+W W W W W W W ` J+i F+F+F+F+F+F+F+F+F+} K+L+W W W W W W W #+9+M+F+F+F+F+F+",
"_ _ _ % N Z _ _ _ _ _ _ _ ` P 5 _ _ _ _ _ _ _ _ _  .R _ _ _ _ _ _ _ _ ..T _ _ _ _ _ _ _ _ _ +.V 5 _ _ _ _ _ _ _ @.#.Y _ _ _ _ _ ",
"_ _ _ % N Z _ _ _ _ _ _ _ ` P 5 _ _ _ _ _ _ _ _ _  .R _ _ _ _ _ _ _ _ ..T _ _ _ _ _ _ _ _ _ +.V 5 _ _ _ _ _ _ _ @.#.Y _ _ _ _ _ ",
"_ _ _ % N N+O+O+O+O+O+O+O+P+Q+5 _ _ _ _ _ _ _ _ _  .R+O+O+O+O+O+O+O+O+z T _ _ _ _ _ _ _ _ _ e.V e.O+O+O+O+O+O+O+k+S+T+_ _ _ _ _ ",
"U+U+U+b V+q W+W+W+X+W+Y+Y+Z+:+`+t t t t t U+U+U+ @Y..@X+W+W+W+W+W+Y+Y++@5+U+t t t t U+U+U+U+b @@#@W+W+W+W+W+Y+Y+(+$@%@t t t t t ",
") G.} } } } } } i+m &@;+;+;+;+;+;+;+;+;+*@=@-@} } } } } } } A.;@#+;+;+;+;+;+;+;+;+>@< m l+} } } } } } l+) ,@;+;+;+;+;+;+;+;+;+'@",
")@5 _ _ _ _ _ _ 5 q.[ _ _ _ _ _ _ _ _ _ !@s.t._ _ _ _ _ _ _ t.u._ _ _ _ _ _ _ _ _ k+< ).3 _ _ _ _ _ _ _ ).7 _ _ _ _ _ _ _ _ _ y.",
"p._ _ _ _ _ _ _ 5 q.[ _ _ _ _ _ _ _ _ _ r.s.U _ _ _ _ _ _ _ t.u._ _ _ _ _ _ _ _ _ : < )._ _ _ _ _ _ _ _ ).7 _ _ _ _ _ _ _ _ _ ~ ",
"D D._ _ _ _ _ _ d q.4 _ _ _ _ _ _ _ _ _ r.s.j.5 _ _ _ _ _ _ } u._ _ _ _ _ _ _ _ _ ~@< {@F+_ _ _ _ _ _ 5 ).7 _ _ _ _ _ _ _ _ _ ~ ",
"]@H.H.H.H.H.H.H.H.e <+H.H.H.H.H.H.H.H.H.! ^@0+H.H.H.H.H.H.H.) @@l.H.H.H.H.H.H.H.H./@X x+H.H.H.H.H.H.H.H.<+e H.H.H.H.H.H.H.H.H.(@",
"_@_@_@:@b.<@_@_@_@_@_@_@_@[@}@|@_@_@_@_@_@_@_@_@_@e+C+:@_@_@_@_@_@_@_@2.1@_@_@_@_@_@_@_@_@_@[@2@3@_@_@_@_@_@_@_@:@b.4@_@_@_@_@_@",
"Z Z Z F+++~@Z Z Z Z Z Z Z 5@6@a Z Z Z Z Z Z Z Z Z v }+Z Z Z Z Z Z Z 7@8@9@Z Z Z Z Z Z Z Z Z d.<+a Z Z Z Z Z Z Z 0@X 0 Z Z Z Z Z ",
"_ _ _ % N Z _ _ _ _ _ _ _ ` P 5 _ _ _ _ _ _ _ _ _  .R _ _ _ _ _ _ _ _ ..T _ _ _ _ _ _ _ _ _ +.V 5 _ _ _ _ _ _ _ @.#.Y _ _ _ _ _ ",
"_ _ _ % N Z _ _ _ _ _ _ _ ` P 5 _ _ _ _ _ _ _ _ _  .R _ _ _ _ _ _ _ _ ..T _ _ _ _ _ _ _ _ _ +.V 5 _ _ _ _ _ _ _ @.#.Y _ _ _ _ _ ",
"_ _ _ % a@'._ _ _ _ _ _ _ b@c@d@_ _ _ _ _ _ _ _ _ ).k.5 _ _ _ _ _ _ _ e@t 0 _ _ _ _ _ _ _ _ O+q (._ _ _ _ _ _ _ f@g@4 _ _ _ _ _ ",
"/.h@h@E s+i@h@h@h@j@V.V V X+V.e V V V V K+k@h@h@h@i@s+h@h@h@h@l@V V V m@V.X+V V V V Q.2@h@h@h@s+i@h@h@h@2@Q.V V X+V.e V V V V V ",
"n@o+o+o+o+o+o+o+o@# p@e.e.e.e.e.e.e.e.% * q@0@o+o+o+o+o+o+J.%+r@s@e.e.e.e.e.e.e.e.j.) t@o+o+o+o+o+o+o+#+] u@e.e.e.e.e.e.e.e.w.* ",
"( _ _ _ _ _ _ _ 7@< [ _ _ _ _ _ _ _ _ _ & | _ _ _ _ _ _ _ _ 8 2 _ _ _ _ _ _ _ _ _ 5 ) 4 _ _ _ _ _ _ _ 5 6 7 _ _ _ _ _ _ _ _ _ t.",
"( _ _ _ _ _ _ _ : < [ _ _ _ _ _ _ _ _ _ & | _ _ _ _ _ _ _ _ 8 2 _ _ _ _ _ _ _ _ _ 5 ) 4 _ _ _ _ _ _ _ 5 6 7 _ _ _ _ _ _ _ _ _ % ",
"*.d.d.d.d.d.d.d.5 < 4 _ _ _ _ _ _ _ _ _ & v@d.d.d.d.d.d.d.d.+ 2 _ _ _ _ _ _ _ _ _ 5 ) w@d.d.d.d.d.d.d.F+6 7 _ _ _ _ _ _ _ _ _ M ",
"x@y@y@y@y@5.5.5.<.&+z@A@A@A@u B@A@A@A@A@C@D@<+y@y@y@y@5.5.5.E@F@A@A@A@A@B@A@A@A@A@A@Q.G@H@y@y@y@5.5.5.I@i@u.A@A@A@B@B@A@A@A@A@J@",
"K@K@K@p.L@- S S S S S S S @ j@M@K@K@K@K@K@K@K@K@N@x.O@S S S S S S S $+P@s.K@K@K@K@K@K@K@K@K@Q@x@R@S S S S S S S @ S@T@K@K@K@K@K@",
"_ _ _ % N a _ _ _ _ _ _ _ U@6@5 _ _ _ _ _ _ _ _ _  .R _ _ _ _ _ _ _ _ S T _ _ _ _ _ _ _ _ _ e.V 5 _ _ _ _ _ _ _ P+#.Y _ _ _ _ _ ",
"_ _ _ % N Z _ _ _ _ _ _ _ ` P 5 _ _ _ _ _ _ _ _ _  .R _ _ _ _ _ _ _ _ ..T _ _ _ _ _ _ _ _ _ +.V 5 _ _ _ _ _ _ _ @.#.Y _ _ _ _ _ ",
"_ _ _ % N Z _ _ _ _ _ _ _ ` 6@5 _ _ _ _ _ _ _ _ _  .R _ _ _ _ _ _ _ _ ..T _ _ _ _ _ _ _ _ _ +.V ^._ _ _ _ _ _ _ @.#.Y _ _ _ _ _ ",
"'.'.'.V@a@C H H H H H H H W@|+X@'.'.'.'.'.'.'.'.9 Y@X+Z@H H H H H H  .e@U.9 '.'.'.'.'.'.'.'.`@q H.H H H H H H H  #.#q+'.'.'.'.'.",
"Y.F.F.F.F.F.F.F.0+x@i@+#+#+#+#+#+#+#+#+#+#7.r F.F.F.F.F.F.0+m @#f++#+#+#+#+#+#+#+#+#H+x@0+F.F.F.F.F.F.F.V.##+#+#+#+#+#+#+#+#+#$#",
" .D.h+h+h+h+h+h+N+) d@%#%#%#%#%#%#%#%#%#&#C.j.h+h+h+h+h+h+h+} *#%#%#%#%#%#%#%#%#%#0@< H.F+h+h+h+h+h+h+D.).(.%#%#%#%#%#%#%#%#=#-#",
"p._ _ _ _ _ _ _ 5 q.[ _ _ _ _ _ _ _ _ _ r.s.U _ _ _ _ _ _ _ t.u._ _ _ _ _ _ _ _ _ : < )._ _ _ _ _ _ _ _ ).7 _ _ _ _ _ _ _ _ _ ~ ",
";#5 _ _ _ _ _ _ 5 q.[ _ _ _ _ _ _ _ _ _ r.s.% _ _ _ _ _ _ _ M u._ _ _ _ _ _ _ _ _ : < ).5 _ _ _ _ _ _ _ ).7 _ _ _ _ _ _ _ _ _ ~ ",
"x.G.>#>#>#>#>#>#} 0+2+>#>#>#>#>#>#>#>#M ,#'#p./ >#>#>#>#>#M N@%@/ >#>#>#>#>#>#>#>#F+E.)#i+>#>#>#>#>#>#!#l.~#M >#>#>#>#>#>#>#>#{#",
"|.]#R.^#l@,.R.R.R., , R.R.R./#(#R.R.R.R.i@|.2 R.R.,.l@^#R.R.R._#R.R.R.:#a@^#R.R.R.<#[#`.R.R.R.}#|#R.R.R., , R.R.<#1#d+R.R.R.R.s+",
"5@5@5@O 2#{#5@5@5@5@5@5@5@3#i@U@5@5@5@5@5@5@5@5@5@t@I+5@5@5@5@5@5@5@~ 8@E@5@5@5@5@5@5@5@5@5@O = U@5@5@5@5@5@5@5@{ 4#5#5@5@5@5@5@",
"_ _ _ % N Z _ _ _ _ _ _ _ ` P 5 _ _ _ _ _ _ _ _ _  .R _ _ _ _ _ _ _ _ ..T _ _ _ _ _ _ _ _ _ +.V 5 _ _ _ _ _ _ _ %.#.Y _ _ _ _ _ ",
"_ _ _ % N Z _ _ _ _ _ _ _ ` P 5 _ _ _ _ _ _ _ _ _  .R _ _ _ _ _ _ _ _ ..T _ _ _ _ _ _ _ _ _ +.V 5 _ _ _ _ _ _ _ @.#.Y _ _ _ _ _ ",
"_ _ _ % N 5 _ _ _ _ _ _ _ ` s+_ _ _ _ _ _ _ _ _ _  .6#_ _ _ _ _ _ _ _ - 9@_ _ _ _ _ _ _ _ _ +.V 0 _ _ _ _ _ _ _ P+7#Y _ _ _ _ _ ",
"I.I.I.8#9#v@I.I.I.I.I.I.I.0#:+a#I.I.I.I.I.I.I.I.6#V.A+9@I.I.I.I.I.I.6#F@b#A@I.I.I.I.I.I.I.I.u c#d#I.I.I.I.I.I.I.9@9#d#I.I.I.I.I."};
