/* XPM */
static char * test_xpm[] = {
"20 64 26 1",
" 	c None",
".	c #2C2C2C",
"+	c #DCDCDC",
"@	c #B4AC00",
"#	c #202020",
"$	c #383838",
"%	c #8C8C8C",
"&	c #A8A8A8",
"*	c #CCC400",
"=	c #707070",
"-	c #C0C0C0",
";	c #B4B4B4",
">	c #7C7C7C",
",	c #9C9C00",
"'	c #706C00",
")	c #545454",
"!	c #848400",
"~	c #646464",
"{	c #989898",
"]	c #484848",
"^	c #585400",
"/	c #FCF420",
"(	c #D0D0D0",
"_	c #E4D800",
":	c #ECECEC",
"<	c #404000",
"....................",
"+@@@+#$%&+++++***=%%",
"--**%#$%-;%*>*,,,'))",
"--!@~#$&+&%>*>'!')>)",
"{%%,)#$%-%%%&&~!')=)",
"%=%!)#$]&*,&%%>^)=))",
"%{=%)#$]>,!@%&&=~=$$",
"{&%%)#$]=%&%&%%%&=$$",
"%%&%)##])==))$$$$$$$",
"%&%%).#]]$$$$$$$$$##",
"&%&%).#$]$..#####..$",
"%>%=~$#$]]]]=&&&&++'",
">%,%)$#$]=&//+++((+*",
"{%~~)$#.$&/*,%%&%&,=",
"%&!))$#.]&*!>&%__%,)",
"&%')=]#.]&_!>%*_>%!)",
"%%=~))##]__>>&__=%')",
"&%=%=]##]_>%>%,'~&%)",
"%=)=)]##]>%>%_~~~)))",
"=)=)].##.&%=%=)$$$$$",
"$.######.%=$$$######",
"########.$)$####....",
"##]]]]]]]%%{,,,,,>).",
"$]~,***@(:::****@,!#",
")],*@={&&{&{,>,!,!'#",
")]{:{{,{*&{{>&!>,'^#",
"]]{:_&{*!{**&{!&!~^#",
"]]{:*&*,>{*!{&{{>~<#",
"$]{:@{*'>&{&{>@!>~<#",
"#]{:@&,'>{>{&{@!>)<#",
"#]{:&*,'>{&&{&@!%)<#",
"#]>{*,'=>&{{>{@!~)<#",
"#$){,'>>%{&>{>@!=]$#",
"#.)&:&**,%>>>>@!~].#",
"#.)%:-*!'>{{%&,!~]##",
"##]=(-!'~>%&{@,~~$##",
"<#]);+'~>%&%!~~~=$#$",
"<#$)%-{>>===~~==)$#$",
"<#$)]%%==))]#<])]##$",
"<#.]]$...##...$$$$$$",
"^#.]]]$$$$$]]]))~~~=",
"^#.$~,,,,,,,!>>%{{&&",
"^##$'********,&-&-{-",
"^##$'*@@@@@@@!&-&&-*",
"<##$.@@,,,,,,!'%-&&,",
"$##$.%%%,!,!!''=&-&%",
"$##$.-+-,''''==%&-%;",
"$##$.;+(!====>{%,&;&",
"$##$.&+(=>%%@@!;%%;{",
"$##..%(;%;{;@@'%;%;{",
"####.%{=====!''%&=>%",
"....$)]$......)==>%@",
"$$$$])]]$$$$$$.]))))",
"!=>=~~))]]]]]$$.....",
",!%%-&&&&&%])]$$$$$$",
"!!%{-+__%->$])]]]$$$",
"%%%;&%_!%>~#$)]!@@@~",
"&(&>&(&%%~)#$]]@!!!~",
"&%>~~~~~~))$#$]~!!'~",
"$$$$$$$$$$$$#.];!'~{",
"#############.]$<^)~",
"..............$]<<$#",
"$$$$$$$$$$$$$$$]]]]$",
"$$$$$$$$$$$$$$$$$$$$"};
